<?xml version="1.0" encoding="UTF-8" standalone="no"?>
<!-- Created with Inkscape (http://www.inkscape.org/) -->

<svg
   version="1.1"
   id="svg155"
   xml:space="preserve"
   width="434.55997"
   height="180.15999"
   viewBox="0 0 434.55997 180.15999"
   xmlns="http://www.w3.org/2000/svg"
   xmlns:svg="http://www.w3.org/2000/svg"><defs
     id="defs159"><clipPath
       clipPathUnits="userSpaceOnUse"
       id="clipPath169"><path
         d="M 0,0 H 1358.3333 V 560.72479 H 0 Z"
         clip-rule="evenodd"
         id="path167" /></clipPath><clipPath
       clipPathUnits="userSpaceOnUse"
       id="clipPath181"><path
         d="M 0,0 H 1358.3333 V 560.72479 H 0 Z"
         clip-rule="evenodd"
         id="path179" /></clipPath><clipPath
       clipPathUnits="userSpaceOnUse"
       id="clipPath231"><path
         d="M 902.55701,2.9985282 H 1352.3362 V 212.8955 H 902.55701 Z"
         clip-rule="evenodd"
         id="path229" /></clipPath><clipPath
       clipPathUnits="userSpaceOnUse"
       id="clipPath259"><path
         d="M 0,0 H 1358.3333 V 560.72479 H 0 Z"
         clip-rule="evenodd"
         id="path257" /></clipPath><clipPath
       clipPathUnits="userSpaceOnUse"
       id="clipPath273"><path
         d="M 902.55701,377.81454 H 1352.3362 V 557.72625 H 902.55701 Z"
         clip-rule="evenodd"
         id="path271" /></clipPath><clipPath
       clipPathUnits="userSpaceOnUse"
       id="clipPath297"><path
         d="M 0,0 H 1358.3333 V 560.72479 H 0 Z"
         clip-rule="evenodd"
         id="path295" /></clipPath></defs><g
     id="g161"
     transform="matrix(0.31999998,0,0,0.31999998,0,1.1706665e-6)"><g
       id="g163"><g
         id="g165"
         clip-path="url(#clipPath169)"><g
           id="g171"
           transform="scale(2.9985282)"><path
             d="M 0,0 H 453 V 187 H 0 Z"
             style="fill:#ffffff;fill-opacity:1;fill-rule:nonzero;stroke:none"
             id="path173" /></g></g></g><g
       id="g175"><g
         id="g177"
         clip-path="url(#clipPath181)"><g
           id="g183"
           transform="matrix(2.9985282,0,0,2.9985282,1.4992641,1.4992641)"><path
             d="M 1,1 H 151 V 51 H 1 Z"
             style="fill:#ffffff;fill-opacity:1;fill-rule:nonzero;stroke:none"
             id="path185" /><path
             d="M 1,1 H 151 V 51 H 1 Z"
             style="fill:none;stroke:#000000;stroke-width:1;stroke-linecap:butt;stroke-linejoin:miter;stroke-miterlimit:10;stroke-dasharray:none;stroke-opacity:1"
             id="path187" /></g><g
           id="g189"
           transform="scale(2.9985282)"><text
             transform="translate(46.828125,24)"
             style="font-variant:normal;font-weight:normal;font-size:12px;font-family:Arial;-inkscape-font-specification:ArialMT;writing-mode:lr-tb;fill:#000000;fill-opacity:1;fill-rule:nonzero;stroke:none"
             id="text193"><tspan
               x="0 6.6738281 9.3398438 16.013672 19.347656 26.021484 30.017578 33.351562 40.025391 46.025391 52.699219"
               y="0"
               id="tspan191">«interface»</tspan></text><text
             transform="translate(30.8125,38)"
             style="font-variant:normal;font-weight:bold;font-size:12px;font-family:Arial;-inkscape-font-specification:Arial-BoldMT;writing-mode:lr-tb;fill:#000000;fill-opacity:1;fill-rule:nonzero;stroke:none"
             id="text197"><tspan
               x="0 8.0039062 14.677734 19.347656 26.021484 29.355469 36.029297 42.703125 50.707031 55.376953 62.707031 69.380859 72.714844 80.044922 86.71875"
               y="0"
               id="tspan195">ServiceProvider</tspan></text></g><g
           id="g199"
           transform="matrix(2.9985282,0,0,2.9985282,1.4992641,1.4992641)"><path
             d="m 1,131 h 150 v 50 H 1 Z"
             style="fill:#ffffff;fill-opacity:1;fill-rule:nonzero;stroke:none"
             id="path201" /><path
             d="m 1,131 h 150 v 50 H 1 Z"
             style="fill:none;stroke:#000000;stroke-width:1;stroke-linecap:butt;stroke-linejoin:miter;stroke-miterlimit:10;stroke-dasharray:none;stroke-opacity:1"
             id="path203" /></g><g
           id="g205"
           transform="scale(2.9985282)"><text
             transform="translate(25.65625,160)"
             style="font-variant:normal;font-weight:bold;font-size:12px;font-family:Arial;-inkscape-font-specification:Arial-BoldMT;writing-mode:lr-tb;fill:#000000;fill-opacity:1;fill-rule:nonzero;stroke:none"
             id="text209"><tspan
               x="0 8.6660156 15.996094 23.326172 30 34.669922 41.34375 45.339844 52.013672 60.017578 64.6875 72.017578 78.691406 82.025391 89.355469 96.029297"
               y="0"
               id="tspan207">ConcreteProvider</tspan></text></g><g
           id="g211"
           transform="matrix(2.9985282,0,0,2.9985282,1.4992641,1.4992641)"><path
             d="m 75.5,131 v -3 h 1 v 3 m -1,-6 v -3 h 1 v 3 m -1,-6 v -3 h 1 v 3 m -1,-6 v -3 h 1 v 3 m -1,-6 v -3 h 1 v 3 m -1,-6 v -3 h 1 v 3 m -1,-6 v -3 h 1 v 3 m -1,-6 v -3 h 1 v 3 m -1,-6 v -3 h 1 v 3 m -1,-6 v -3 h 1 v 3 m -1,-6 v -3 h 1 v 3"
             style="fill:#000000;fill-opacity:1;fill-rule:nonzero;stroke:none"
             id="path213" /><path
             d="m 76,52.119999 6.5,13.000004 h -13 z"
             style="fill:none;stroke:#000000;stroke-width:1;stroke-linecap:butt;stroke-linejoin:miter;stroke-miterlimit:10;stroke-dasharray:none;stroke-opacity:1"
             id="path215" /><path
             d="m 375.5,126 v -3 h 1 v 3 m -1,-6 v -3 h 1 v 3 m -1,-6 v -3 h 1 v 3 m -1,-6 v -3 h 1 v 3 m -1,-6 v -3 h 1 v 3 m -1,-6 v -3 h 1 v 3 m -1,-6 v -3 h 1 v 3"
             style="fill:#000000;fill-opacity:1;fill-rule:nonzero;stroke:none"
             id="path217" /><path
             d="m 376,72.120003 6.5,13 h -13 z"
             style="fill:none;stroke:#000000;stroke-width:1;stroke-linecap:butt;stroke-linejoin:miter;stroke-miterlimit:10;stroke-dasharray:none;stroke-opacity:1"
             id="path219" /><path
             d="M 301,1 H 451 V 71 H 301 Z"
             style="fill:#ffffff;fill-opacity:1;fill-rule:nonzero;stroke:none"
             id="path221" /><path
             d="M 301,1 H 451 V 71 H 301 Z"
             style="fill:none;stroke:#000000;stroke-width:1;stroke-linecap:butt;stroke-linejoin:miter;stroke-miterlimit:10;stroke-dasharray:none;stroke-opacity:1"
             id="path223" /></g></g></g><g
       id="g225"><g
         id="g227"
         clip-path="url(#clipPath231)"><g
           id="g233"
           transform="scale(2.9985282)"><path
             d="m 301,39 h 150 v 1 H 301 Z"
             style="fill:#9a9a9a;fill-opacity:1;fill-rule:nonzero;stroke:none"
             id="path235" /><path
             d="m 450,40 h 1 v -1"
             style="fill:#eeeeee;fill-opacity:1;fill-rule:nonzero;stroke:none"
             id="path237" /><path
             d="m 301,39 h 1 v 1 h -1 z"
             style="fill:#9a9a9a;fill-opacity:1;fill-rule:nonzero;stroke:none"
             id="path239" /><text
             transform="translate(346.3125,16)"
             style="font-variant:normal;font-weight:normal;font-size:12px;font-family:Arial;-inkscape-font-specification:ArialMT;writing-mode:lr-tb;fill:#000000;fill-opacity:1;fill-rule:nonzero;stroke:none"
             id="text243"><tspan
               x="0 6.6738281 9.3398438 16.013672 19.347656 26.021484 30.017578 33.351562 40.025391 46.025391 52.699219"
               y="0"
               id="tspan241">«interface»</tspan></text><text
             transform="translate(354.32813,30)"
             style="font-variant:normal;font-weight:bold;font-size:12px;font-family:Arial;-inkscape-font-specification:Arial-BoldMT;writing-mode:lr-tb;fill:#000000;fill-opacity:1;fill-rule:nonzero;stroke:none"
             id="text247"><tspan
               x="0 7.3300781 14.003906 20.677734 24.673828 32.003906 36.673828"
               y="0"
               id="tspan245">Factory</tspan></text><text
             transform="translate(304.33398,57)"
             style="font-style:italic;font-variant:normal;font-size:12px;font-family:Arial;-inkscape-font-specification:Arial-ItalicMT;writing-mode:lr-tb;fill:#000000;fill-opacity:1;fill-rule:nonzero;stroke:none"
             id="text251"><tspan
               x="0 6 9.9960938 16.669922 23.34375 26.677734 33.351562 41.355469 45.351562 52.025391 58.025391 60.691406 67.365234 74.039062 78.035156 82.03125"
               y="0"
               id="tspan249">createProvider()</tspan></text></g></g></g><g
       id="g253"><g
         id="g255"
         clip-path="url(#clipPath259)"><g
           id="g261"
           transform="matrix(2.9985282,0,0,2.9985282,1.4992641,1.4992641)"><path
             d="m 301,126 h 150 v 60 H 301 Z"
             style="fill:#ffffff;fill-opacity:1;fill-rule:nonzero;stroke:none"
             id="path263" /><path
             d="m 301,126 h 150 v 60 H 301 Z"
             style="fill:none;stroke:#000000;stroke-width:1;stroke-linecap:butt;stroke-linejoin:miter;stroke-miterlimit:10;stroke-dasharray:none;stroke-opacity:1"
             id="path265" /></g></g></g><g
       id="g267"><g
         id="g269"
         clip-path="url(#clipPath273)"><g
           id="g275"
           transform="scale(2.9985282)"><path
             d="m 301,150 h 150 v 1 H 301 Z"
             style="fill:#9a9a9a;fill-opacity:1;fill-rule:nonzero;stroke:none"
             id="path277" /><path
             d="m 450,151 h 1 v -1"
             style="fill:#eeeeee;fill-opacity:1;fill-rule:nonzero;stroke:none"
             id="path279" /><path
             d="m 301,150 h 1 v 1 h -1 z"
             style="fill:#9a9a9a;fill-opacity:1;fill-rule:nonzero;stroke:none"
             id="path281" /><text
             transform="translate(308.625,141)"
             style="font-variant:normal;font-weight:bold;font-size:12px;font-family:Arial;-inkscape-font-specification:Arial-BoldMT;writing-mode:lr-tb;fill:#000000;fill-opacity:1;fill-rule:nonzero;stroke:none"
             id="text285"><tspan
               x="0 8.0039062 14.677734 19.347656 26.021484 29.355469 36.029297 42.703125 50.707031 55.376953 62.707031 69.380859 72.714844 80.044922 86.71875 91.388672 98.71875 105.39258 112.06641 116.0625 123.39258 128.0625"
               y="0"
               id="tspan283">ServiceProviderFactory</tspan></text><text
             transform="translate(304.33398,168)"
             style="font-variant:normal;font-weight:normal;font-size:12px;font-family:Arial;-inkscape-font-specification:ArialMT;writing-mode:lr-tb;fill:#000000;fill-opacity:1;fill-rule:nonzero;stroke:none"
             id="text289"><tspan
               x="0 6 9.9960938 16.669922 23.34375 26.677734 33.351562 41.355469 45.351562 52.025391 58.025391 60.691406 67.365234 74.039062 78.035156 82.03125"
               y="0"
               id="tspan287">createProvider()</tspan></text></g></g></g><g
       id="g291"><g
         id="g293"
         clip-path="url(#clipPath297)"><g
           id="g299"
           transform="matrix(2.9985282,0,0,2.9985282,1.4992641,1.4992641)"><path
             d="m 301,156.5 h -3 v -1 h 3 m -6,1 h -3 v -1 h 3 m -6,1 h -3 v -1 h 3 m -6,1 h -3 v -1 h 3 m -6,1 h -3 v -1 h 3 m -6,1 h -3 v -1 h 3 m -6,1 h -3 v -1 h 3 m -6,1 h -3 v -1 h 3 m -6,1 h -3 v -1 h 3 m -6,1 h -3 v -1 h 3 m -6,1 h -3 v -1 h 3 m -6,1 h -3 v -1 h 3 m -6,1 h -3 v -1 h 3 m -6,1 h -3 v -1 h 3 m -6,1 h -3 v -1 h 3 m -6,1 h -3 v -1 h 3 m -6,1 h -3 v -1 h 3 m -6,1 h -3 v -1 h 3 m -6,1 h -3 v -1 h 3 m -6,1 h -3 v -1 h 3 m -6,1 h -3 v -1 h 3 m -6,1 h -3 v -1 h 3 m -6,1 h -3 v -1 h 3 m -6,1 h -3 v -1 h 3 m -6,1 h -3 v -1 h 3"
             style="fill:#000000;fill-opacity:1;fill-rule:nonzero;stroke:none"
             id="path301" /><path
             d="m 165.11999,149.5 -13,6.5 13,6.5"
             style="fill:none;stroke:#000000;stroke-width:1;stroke-linecap:butt;stroke-linejoin:miter;stroke-miterlimit:10;stroke-dasharray:none;stroke-opacity:1"
             id="path303" /></g><g
           id="g305"
           transform="scale(2.9985282)"><path
             d="m 192,150 h 69 v 14 h -69 z"
             style="fill:#ffffff;fill-opacity:1;fill-rule:nonzero;stroke:none"
             id="path307" /><path
             d="m 192,150 h 69 v 14 h -69 z"
             style="fill:#f8f9fa;fill-opacity:1;fill-rule:nonzero;stroke:none"
             id="path309" /><text
             transform="translate(192.14063,161)"
             style="font-variant:normal;font-weight:normal;font-size:12px;font-family:Arial;-inkscape-font-specification:ArialMT;writing-mode:lr-tb;fill:#000000;fill-opacity:1;fill-rule:nonzero;stroke:none"
             id="text313"><tspan
               x="0 6.6738281 10.007812 16.681641 22.681641 26.015625 32.689453 39.363281 42.697266 45.363281 52.037109 55.371094 62.044922"
               y="0"
               id="tspan311">«Instantiate»</tspan></text></g></g></g></g></svg>
