<?xml version="1.0" encoding="UTF-8" standalone="no"?>
<!-- Created with Inkscape (http://www.inkscape.org/) -->

<svg
   version="1.1"
   id="svg9"
   xml:space="preserve"
   width="552"
   height="376"
   viewBox="0 0 552 376"
   xmlns="http://www.w3.org/2000/svg"
   xmlns:svg="http://www.w3.org/2000/svg"><defs
     id="defs13"><clipPath
       clipPathUnits="userSpaceOnUse"
       id="clipPath23"><path
         d="M 0,0 H 1724.9999 V 1173.9583 H 0 Z"
         clip-rule="evenodd"
         id="path21" /></clipPath><clipPath
       clipPathUnits="userSpaceOnUse"
       id="clipPath35"><path
         d="M 0,0 H 1724.9999 V 1170.9635 H 0 Z"
         clip-rule="evenodd"
         id="path33" /></clipPath></defs><g
     id="g15"
     transform="matrix(0.31999998,0,0,0.31999998,0,9.4e-6)"><g
       id="g17"><g
         id="g19"
         clip-path="url(#clipPath23)"><g
           id="g25"
           transform="scale(2.9947915)"><path
             d="M 0,0 H 576 V 392 H 0 Z"
             style="fill:#ffffff;fill-opacity:1;fill-rule:nonzero;stroke:none"
             id="path27" /></g></g></g><g
       id="g29"><g
         id="g31"
         clip-path="url(#clipPath35)"><g
           id="g37"
           transform="matrix(2.9947915,0,0,2.9947915,1.4973957,1.4973957)"><path
             d="m 184,151 c 0,2.78386 -0.13644,5.561 -0.40932,8.33147 -0.27285,2.77044 -0.68084,5.52084 -1.22395,8.2512 -0.54311,2.73036 -1.2187,5.42754 -2.02681,8.09152 -0.80811,2.66399 -1.74483,5.28194 -2.81018,7.85389 -1.06534,2.57194 -2.25415,5.08549 -3.56645,7.54063 -1.3123,2.45514 -2.74178,4.84006 -4.28839,7.15474 -1.54662,2.3147 -3.20296,4.54802 -4.96901,6.69998 -1.76606,2.15193 -3.63332,4.21214 -5.60181,6.18063 -1.96849,1.9685 -4.0287,3.83576 -6.18065,5.60183 -2.15195,1.76605 -4.38527,3.42238 -6.69997,4.96899 -2.31468,1.54665 -4.6996,2.97611 -7.15473,4.28841 -2.45516,1.3123 -4.96871,2.50111 -7.54065,3.56643 -2.57195,1.06536 -5.18991,2.00208 -7.85389,2.8102 -2.66397,0.80811 -5.36115,1.4837 -8.09152,2.02681 -2.73036,0.54312 -5.48076,0.95111 -8.25121,1.22397 C 104.56101,235.86357 101.78385,236 99,236 c -2.783852,0 -5.561005,-0.13643 -8.331459,-0.40929 -2.770454,-0.27285 -5.520859,-0.68084 -8.251228,-1.22397 -2.730355,-0.5431 -5.427529,-1.2187 -8.091507,-2.02682 -2.663987,-0.80812 -5.281952,-1.74484 -7.853905,-2.81018 -2.571941,-1.06532 -5.085487,-2.25414 -7.54063,-3.56644 -2.45514,-1.3123 -4.840054,-2.74177 -7.154747,-4.2884 -2.31469,-1.54662 -4.548008,-3.20295 -6.699955,-4.96901 -2.151951,-1.76607 -4.212166,-3.63333 -6.180649,-5.60183 -1.968479,-1.96849 -3.835751,-4.0287 -5.601811,-6.18063 -1.76606,-2.15196 -3.422403,-4.38528 -4.96903,-6.69998 -1.546625,-2.31468 -2.97609,-4.6996 -4.288389,-7.15474 -1.3123,-2.45514 -2.501118,-4.96869 -3.566454,-7.54063 -1.065333,-2.57195 -2.002054,-5.1899 -2.810166,-7.85389 -0.808111,-2.66398 -1.483717,-5.36116 -2.026821,-8.09152 -0.543102,-2.73036 -0.951086,-5.48076 -1.223951,-8.2512 C 14.136432,156.561 13.999999,153.78386 14,151 c -10e-7,-2.78384 0.136432,-5.56099 0.409297,-8.33145 0.272866,-2.77045 0.68085,-5.52086 1.223952,-8.25122 0.543104,-2.73036 1.21871,-5.42754 2.026821,-8.09153 0.808112,-2.66398 1.744833,-5.28195 2.810166,-7.8539 1.065336,-2.57194 2.254154,-5.08549 3.566454,-7.54063 1.312299,-2.45515 2.741764,-4.84007 4.288389,-7.15476 1.546627,-2.31469 3.20297,-4.548002 4.96903,-6.699941 1.76606,-2.151955 3.633332,-4.212166 5.601811,-6.180649 1.968483,-1.968483 4.028702,-3.835755 6.180652,-5.601814 2.151947,-1.766053 4.385266,-3.422394 6.699955,-4.969025 2.314694,-1.546623 4.699608,-2.97609 7.154744,-4.288384 2.455143,-1.312301 4.968689,-2.501121 7.54063,-3.566467 2.571953,-1.06533 5.189918,-2.002052 7.853905,-2.810165 2.663978,-0.808106 5.361152,-1.483712 8.091507,-2.026818 2.730369,-0.543098 5.480774,-0.95108 8.251228,-1.223945 C 93.438995,66.136436 96.216148,66 99,66 c 2.78385,0 5.56101,0.136436 8.33146,0.409302 2.77045,0.272865 5.52085,0.680847 8.25121,1.223945 2.73037,0.543106 5.42754,1.218712 8.09152,2.026825 2.66398,0.808113 5.28194,1.744828 7.85389,2.810158 2.57194,1.065346 5.08549,2.254166 7.54065,3.56646 2.45513,1.312301 4.84005,2.741768 7.15473,4.288391 2.3147,1.546631 4.54802,3.202972 6.69997,4.969025 2.15195,1.766059 4.21216,3.633331 6.18065,5.601814 1.96849,1.968483 3.83575,4.028694 5.60181,6.180649 1.76605,2.151947 3.42239,4.385261 4.96901,6.699951 1.54661,2.31469 2.97609,4.69961 4.28839,7.15475 1.3123,2.45514 2.50111,4.96868 3.56645,7.54062 1.06535,2.57196 2.00207,5.18992 2.81016,7.8539 0.80813,2.66399 1.48372,5.36116 2.02683,8.09152 0.54311,2.73038 0.9511,5.48079 1.22397,8.25124 C 183.86357,145.43901 184,148.21616 184,151 Z"
             style="fill:#ededed;fill-opacity:1;fill-rule:nonzero;stroke:none"
             id="path39" /><path
             d="m 184,151 c 0,2.78386 -0.13644,5.561 -0.40932,8.33147 -0.27285,2.77044 -0.68084,5.52084 -1.22395,8.2512 -0.54311,2.73036 -1.2187,5.42754 -2.02681,8.09152 -0.80811,2.66399 -1.74483,5.28194 -2.81018,7.85389 -1.06534,2.57194 -2.25415,5.08549 -3.56645,7.54063 -1.3123,2.45514 -2.74178,4.84006 -4.28839,7.15474 -1.54662,2.3147 -3.20296,4.54802 -4.96901,6.69998 -1.76606,2.15193 -3.63332,4.21214 -5.60181,6.18063 -1.96849,1.9685 -4.0287,3.83576 -6.18065,5.60183 -2.15195,1.76605 -4.38527,3.42238 -6.69997,4.96899 -2.31468,1.54665 -4.6996,2.97611 -7.15473,4.28841 -2.45516,1.3123 -4.96871,2.50111 -7.54065,3.56643 -2.57195,1.06536 -5.18991,2.00208 -7.85389,2.8102 -2.66397,0.80811 -5.36115,1.4837 -8.09152,2.02681 -2.73036,0.54312 -5.48076,0.95111 -8.25121,1.22397 C 104.56101,235.86357 101.78385,236 99,236 c -2.783852,0 -5.561005,-0.13643 -8.331459,-0.40929 -2.770454,-0.27285 -5.520859,-0.68084 -8.251228,-1.22397 -2.730355,-0.5431 -5.427529,-1.2187 -8.091507,-2.02682 -2.663987,-0.80812 -5.281952,-1.74484 -7.853905,-2.81018 -2.571941,-1.06532 -5.085487,-2.25414 -7.54063,-3.56644 -2.45514,-1.3123 -4.840054,-2.74177 -7.154747,-4.2884 -2.31469,-1.54662 -4.548008,-3.20295 -6.699955,-4.96901 -2.151951,-1.76607 -4.212166,-3.63333 -6.180649,-5.60183 -1.968479,-1.96849 -3.835751,-4.0287 -5.601811,-6.18063 -1.76606,-2.15196 -3.422403,-4.38528 -4.96903,-6.69998 -1.546625,-2.31468 -2.97609,-4.6996 -4.288389,-7.15474 -1.3123,-2.45514 -2.501118,-4.96869 -3.566454,-7.54063 -1.065333,-2.57195 -2.002054,-5.1899 -2.810166,-7.85389 -0.808111,-2.66398 -1.483717,-5.36116 -2.026821,-8.09152 -0.543102,-2.73036 -0.951086,-5.48076 -1.223951,-8.2512 C 14.136432,156.561 13.999999,153.78386 14,151 c -10e-7,-2.78384 0.136432,-5.56099 0.409297,-8.33145 0.272866,-2.77045 0.68085,-5.52086 1.223952,-8.25122 0.543104,-2.73036 1.21871,-5.42754 2.026821,-8.09153 0.808112,-2.66398 1.744833,-5.28195 2.810166,-7.8539 1.065336,-2.57194 2.254154,-5.08549 3.566454,-7.54063 1.312299,-2.45515 2.741764,-4.84007 4.288389,-7.15476 1.546627,-2.31469 3.20297,-4.548002 4.96903,-6.699941 1.76606,-2.151955 3.633332,-4.212166 5.601811,-6.180649 1.968483,-1.968483 4.028702,-3.835755 6.180652,-5.601814 2.151947,-1.766053 4.385266,-3.422394 6.699955,-4.969025 2.314694,-1.546623 4.699608,-2.97609 7.154744,-4.288384 2.455143,-1.312301 4.968689,-2.501121 7.54063,-3.566467 2.571953,-1.06533 5.189918,-2.002052 7.853905,-2.810165 2.663978,-0.808106 5.361152,-1.483712 8.091507,-2.026818 2.730369,-0.543098 5.480774,-0.95108 8.251228,-1.223945 C 93.438995,66.136436 96.216148,66 99,66 c 2.78385,0 5.56101,0.136436 8.33146,0.409302 2.77045,0.272865 5.52085,0.680847 8.25121,1.223945 2.73037,0.543106 5.42754,1.218712 8.09152,2.026825 2.66398,0.808113 5.28194,1.744828 7.85389,2.810158 2.57194,1.065346 5.08549,2.254166 7.54065,3.56646 2.45513,1.312301 4.84005,2.741768 7.15473,4.288391 2.3147,1.546631 4.54802,3.202972 6.69997,4.969025 2.15195,1.766059 4.21216,3.633331 6.18065,5.601814 1.96849,1.968483 3.83575,4.028694 5.60181,6.180649 1.76605,2.151947 3.42239,4.385261 4.96901,6.699951 1.54661,2.31469 2.97609,4.69961 4.28839,7.15475 1.3123,2.45514 2.50111,4.96868 3.56645,7.54062 1.06535,2.57196 2.00207,5.18992 2.81016,7.8539 0.80813,2.66399 1.48372,5.36116 2.02683,8.09152 0.54311,2.73038 0.9511,5.48079 1.22397,8.25124 C 183.86357,145.43901 184,148.21616 184,151 Z"
             style="fill:none;stroke:#000000;stroke-width:1;stroke-linecap:butt;stroke-linejoin:miter;stroke-miterlimit:10;stroke-dasharray:none;stroke-opacity:1"
             id="path41" /><path
             d="m 76.5,176 c 0,-24 0,-36 22.5,-36 -15,0 -15,-24 0,-24 15,0 15,24 0,24 22.5,0 22.5,12 22.5,36 z"
             style="fill:#d9d9d9;fill-opacity:1;fill-rule:nonzero;stroke:none"
             id="path43" /><path
             d="m 76.5,176 c 0,-24 0,-36 22.5,-36 -15,0 -15,-24 0,-24 15,0 15,24 0,24 22.5,0 22.5,12 22.5,36 z"
             style="fill:none;stroke:#000000;stroke-width:1;stroke-linecap:butt;stroke-linejoin:miter;stroke-miterlimit:10;stroke-dasharray:none;stroke-opacity:1"
             id="path45" /></g><g
           id="g47"
           transform="scale(2.9947915)"><text
             transform="translate(83.828125,201)"
             style="font-variant:normal;font-weight:normal;font-size:12px;font-family:Arial;-inkscape-font-specification:ArialMT;writing-mode:lr-tb;fill:#000000;fill-opacity:1;fill-rule:nonzero;stroke:none"
             id="text51"><tspan
               x="0 8.6660156 14.666016 21.339844 25.335938"
               y="0"
               id="tspan49">Users</tspan></text></g><g
           id="g53"
           transform="matrix(0,2.9947915,-2.9947915,0,869.98694,-172.20052)"><path
             d="m 140,96 h 68 c 0.39395,0 0.78412,0.03843 1.17052,0.115288 0.3864,0.07686 0.76158,0.190666 1.12556,0.34143 0.36397,0.150765 0.70975,0.335579 1.03732,0.554459 0.32758,0.218872 0.63065,0.467598 0.90923,0.746178 0.27858,0.278572 0.5273,0.581642 0.74617,0.90921 0.21887,0.327568 0.40369,0.673347 0.55446,1.037323 0.15076,0.363972 0.26457,0.739162 0.34144,1.125562 0.0769,0.38639 0.11528,0.77658 0.1153,1.17055 v 28 c -2e-5,0.39397 -0.0384,0.78413 -0.1153,1.17053 -0.0769,0.38638 -0.19068,0.76157 -0.34146,1.12555 -0.15075,0.36398 -0.33557,0.70976 -0.55446,1.03732 -0.21885,0.32758 -0.46757,0.63065 -0.74615,0.90923 -0.27858,0.27858 -0.58165,0.5273 -0.90923,0.74619 -0.32757,0.21885 -0.67335,0.40367 -1.03732,0.55444 -0.36398,0.15077 -0.73916,0.26459 -1.12556,0.34144 -0.3864,0.0769 -0.77657,0.11528 -1.17052,0.1153 h -68 c -0.39397,-2e-5 -0.78415,-0.0384 -1.17055,-0.1153 -0.3864,-0.0769 -0.76159,-0.19067 -1.12556,-0.34144 -0.36399,-0.15077 -0.70977,-0.33559 -1.03733,-0.55446 -0.32756,-0.21887 -0.63063,-0.46759 -0.90921,-0.74617 -0.27858,-0.27858 -0.52731,-0.58165 -0.74618,-0.90923 -0.21887,-0.32756 -0.40369,-0.67334 -0.55446,-1.03732 -0.15076,-0.36398 -0.26456,-0.73917 -0.34142,-1.12555 C 134.03844,130.78413 134,130.39397 134,130 v -28 c 0,-0.39397 0.0384,-0.78416 0.11529,-1.17056 0.0769,-0.38639 0.19066,-0.76158 0.34142,-1.125552 0.15077,-0.363976 0.33559,-0.709755 0.55447,-1.037323 0.21886,-0.327568 0.46759,-0.630638 0.74617,-0.90921 0.27858,-0.27858 0.58165,-0.527306 0.90921,-0.74617 0.32756,-0.21888 0.67334,-0.40371 1.03733,-0.554474 0.36397,-0.150765 0.73916,-0.264572 1.12556,-0.341431 C 139.21585,96.038429 139.60603,96 140,96 Z"
             style="fill:#ffffff;fill-opacity:1;fill-rule:nonzero;stroke:none"
             id="path55" /><path
             d="m 140,96 h 68 c 0.39395,0 0.78412,0.03843 1.17052,0.115288 0.3864,0.07686 0.76158,0.190666 1.12556,0.34143 0.36397,0.150765 0.70975,0.335579 1.03732,0.554459 0.32758,0.218872 0.63065,0.467598 0.90923,0.746178 0.27858,0.278572 0.5273,0.581642 0.74617,0.90921 0.21887,0.327568 0.40369,0.673347 0.55446,1.037323 0.15076,0.363972 0.26457,0.739162 0.34144,1.125562 0.0769,0.38639 0.11528,0.77658 0.1153,1.17055 v 28 c -2e-5,0.39397 -0.0384,0.78413 -0.1153,1.17053 -0.0769,0.38638 -0.19068,0.76157 -0.34146,1.12555 -0.15075,0.36398 -0.33557,0.70976 -0.55446,1.03732 -0.21885,0.32758 -0.46757,0.63065 -0.74615,0.90923 -0.27858,0.27858 -0.58165,0.5273 -0.90923,0.74619 -0.32757,0.21885 -0.67335,0.40367 -1.03732,0.55444 -0.36398,0.15077 -0.73916,0.26459 -1.12556,0.34144 -0.3864,0.0769 -0.77657,0.11528 -1.17052,0.1153 h -68 c -0.39397,-2e-5 -0.78415,-0.0384 -1.17055,-0.1153 -0.3864,-0.0769 -0.76159,-0.19067 -1.12556,-0.34144 -0.36399,-0.15077 -0.70977,-0.33559 -1.03733,-0.55446 -0.32756,-0.21887 -0.63063,-0.46759 -0.90921,-0.74617 -0.27858,-0.27858 -0.52731,-0.58165 -0.74618,-0.90923 -0.21887,-0.32756 -0.40369,-0.67334 -0.55446,-1.03732 -0.15076,-0.36398 -0.26456,-0.73917 -0.34142,-1.12555 C 134.03844,130.78413 134,130.39397 134,130 v -28 c 0,-0.39397 0.0384,-0.78416 0.11529,-1.17056 0.0769,-0.38639 0.19066,-0.76158 0.34142,-1.125552 0.15077,-0.363976 0.33559,-0.709755 0.55447,-1.037323 0.21886,-0.327568 0.46759,-0.630638 0.74617,-0.90921 0.27858,-0.27858 0.58165,-0.527306 0.90921,-0.74617 0.32756,-0.21888 0.67334,-0.40371 1.03733,-0.554474 0.36397,-0.150765 0.73916,-0.264572 1.12556,-0.341431 C 139.21585,96.038429 139.60603,96 140,96 Z"
             style="fill:none;stroke:#000000;stroke-width:1;stroke-linecap:butt;stroke-linejoin:miter;stroke-miterlimit:10;stroke-dasharray:none;stroke-opacity:1"
             id="path57" /><path
             d="m 141.39999,98 h 65.20002 c 0.71608,0 1.40489,0.137009 2.06645,0.411034 0.66157,0.27404 1.24554,0.66423 1.75191,1.170578 0.50633,0.506348 0.89651,1.090308 1.17054,1.751888 0.27404,0.66158 0.41107,1.35041 0.41109,2.0665 v 25.20001 c -2e-5,0.71608 -0.13705,1.40489 -0.4111,2.06646 -0.27402,0.66158 -0.6642,1.24553 -1.17053,1.75189 -0.50637,0.50634 -1.09034,0.89654 -1.75191,1.17057 C 208.0049,133.86298 207.31609,134 206.60001,134 h -65.20002 c -0.71609,0 -1.40493,-0.13702 -2.06651,-0.41107 -0.66157,-0.27403 -1.24553,-0.66423 -1.75188,-1.17057 -0.50634,-0.50636 -0.89654,-1.09031 -1.17057,-1.75189 -0.27404,-0.66157 -0.41105,-1.35038 -0.41103,-2.06646 V 103.4 c -2e-5,-0.71609 0.13699,-1.40492 0.41103,-2.0665 0.27403,-0.66158 0.66423,-1.24554 1.17057,-1.751888 0.50635,-0.506348 1.09031,-0.896538 1.75188,-1.170571 C 139.99506,98.137016 140.6839,98 141.39999,98 Z"
             style="fill:#ffffff;fill-opacity:1;fill-rule:nonzero;stroke:none"
             id="path59" /><path
             d="m 141.39999,98 h 65.20002 c 0.71608,0 1.40489,0.137009 2.06645,0.411034 0.66157,0.27404 1.24554,0.66423 1.75191,1.170578 0.50633,0.506348 0.89651,1.090308 1.17054,1.751888 0.27404,0.66158 0.41107,1.35041 0.41109,2.0665 v 25.20001 c -2e-5,0.71608 -0.13705,1.40489 -0.4111,2.06646 -0.27402,0.66158 -0.6642,1.24553 -1.17053,1.75189 -0.50637,0.50634 -1.09034,0.89654 -1.75191,1.17057 C 208.0049,133.86298 207.31609,134 206.60001,134 h -65.20002 c -0.71609,0 -1.40493,-0.13702 -2.06651,-0.41107 -0.66157,-0.27403 -1.24553,-0.66423 -1.75188,-1.17057 -0.50634,-0.50636 -0.89654,-1.09031 -1.17057,-1.75189 -0.27404,-0.66157 -0.41105,-1.35038 -0.41103,-2.06646 V 103.4 c -2e-5,-0.71609 0.13699,-1.40492 0.41103,-2.0665 0.27403,-0.66158 0.66423,-1.24554 1.17057,-1.751888 0.50635,-0.506348 1.09031,-0.896538 1.75188,-1.170571 C 139.99506,98.137016 140.6839,98 141.39999,98 Z"
             style="fill:none;stroke:#000000;stroke-width:1;stroke-linecap:butt;stroke-linejoin:miter;stroke-miterlimit:10;stroke-dasharray:none;stroke-opacity:1"
             id="path61" /></g><g
           id="g63"
           transform="matrix(2.9947915,0,0,2.9947915,1.4973957,1.4973957)"><path
             d="m 144,196 h 60 v 30 h -60 z"
             style="fill:#ededed;fill-opacity:1;fill-rule:nonzero;stroke:none"
             id="path65" /><path
             d="m 144,196 h 60 v 30 h -60 z"
             style="fill:none;stroke:#000000;stroke-width:1;stroke-linecap:butt;stroke-linejoin:miter;stroke-miterlimit:10;stroke-dasharray:none;stroke-opacity:1"
             id="path67" /><path
             d="m 173.5,189.63 v -1 h 1 v 1 m -1,-2 v -1 h 1 v 1 m -1,-2 v -1 h 1 v 1 m -1,-2 v -1 h 1 v 1 m -1,-2 v -1 h 1 v 1 m -1,-2 v -1 h 1 v 1 m -1,-2 v -1 h 1 v 1 m -1,-2 v -1 h 1 v 1 m -1,-2 v -1 h 1 v 1 m -1,-2 v -1 h 1 v 1 m -1,-2 v -1 h 1 v 1 m -1,-2 v -1 h 1 v 1 m -1,-2 v -1 h 1 v 1 m -1,-2 v -1 h 1 v 1"
             style="fill:#000000;fill-opacity:1;fill-rule:nonzero;stroke:none"
             id="path69" /><path
             d="m 174,194.88 -3.5,-7 3.5,1.75 3.5,-1.75 z"
             style="fill:#000000;fill-opacity:1;fill-rule:nonzero;stroke:none"
             id="path71" /><path
             d="m 174,194.88 -3.5,-7 3.5,1.75 3.5,-1.75 z"
             style="fill:none;stroke:#000000;stroke-width:1;stroke-linecap:butt;stroke-linejoin:miter;stroke-miterlimit:10;stroke-dasharray:none;stroke-opacity:1"
             id="path73" /><path
             d="m 174,157.11999 3.5,7 -3.5,-1.75 -3.5,1.75 z"
             style="fill:#000000;fill-opacity:1;fill-rule:nonzero;stroke:none"
             id="path75" /><path
             d="m 174,157.11999 3.5,7 -3.5,-1.75 -3.5,1.75 z"
             style="fill:none;stroke:#000000;stroke-width:1;stroke-linecap:butt;stroke-linejoin:miter;stroke-miterlimit:10;stroke-dasharray:none;stroke-opacity:1"
             id="path77" /></g><g
           id="g79"
           transform="scale(2.9947915)"><text
             transform="translate(222.15625,216)"
             style="font-variant:normal;font-weight:normal;font-size:12px;font-family:Arial;-inkscape-font-specification:ArialMT;writing-mode:lr-tb;fill:#000000;fill-opacity:1;fill-rule:nonzero;stroke:none"
             id="text83"><tspan
               x="0 8.6660156 12.662109 19.335938 26.009766 32.683594 39.357422 42.691406 45.357422 52.03125"
               y="0"
               id="tspan81">Credential</tspan></text></g><g
           id="g85"
           transform="matrix(2.9947915,0,0,2.9947915,1.4973957,1.4973957)"><path
             d="M 49,206 74,231 49,256 24,231 Z"
             style="fill:#ededed;fill-opacity:1;fill-rule:nonzero;stroke:none"
             id="path87" /><path
             d="M 49,206 74,231 49,256 24,231 Z"
             style="fill:none;stroke:#000000;stroke-width:1;stroke-linecap:butt;stroke-linejoin:miter;stroke-miterlimit:10;stroke-dasharray:none;stroke-opacity:1"
             id="path89" /></g><g
           id="g91"
           transform="scale(2.9947915)"><text
             transform="translate(69.828125,261)"
             style="font-variant:normal;font-weight:normal;font-size:12px;font-family:Arial;-inkscape-font-specification:ArialMT;writing-mode:lr-tb;fill:#000000;fill-opacity:1;fill-rule:nonzero;stroke:none"
             id="text95"><tspan
               x="0 9.9960938 12.662109 18.662109 22.658203 29.332031 35.332031 42.005859 45.339844 48.673828 52.007812 60.673828 67.347656 73.347656 80.021484 82.6875 88.6875 95.361328"
               y="0"
               id="tspan93">Microsoft Resolver</tspan></text></g><g
           id="g97"
           transform="matrix(2.9947915,0,0,2.9947915,1.4973957,1.4973957)"><path
             d="m 514,76 c 0,2.456345 -0.12036,4.906776 -0.36115,7.351288 -0.24078,2.444511 -0.60076,4.871338 -1.08001,7.280479 -0.47919,2.409149 -1.07529,4.789009 -1.78833,7.139588 -0.71305,2.350575 -1.53958,4.660545 -2.47962,6.929905 -0.93997,2.26936 -1.98892,4.48719 -3.14685,6.65351 -1.15789,2.1663 -2.41919,4.27063 -3.7839,6.313 -1.36466,2.04238 -2.82611,4.01295 -4.3844,5.91174 -1.55826,1.89877 -3.20584,3.7166 -4.94275,5.45349 -1.73688,1.7369 -3.55472,3.3845 -5.45349,4.94278 -1.89877,1.55829 -3.86939,3.01976 -5.91178,4.38443 -2.04232,1.36467 -4.14666,2.62597 -6.31298,3.78388 -2.16629,1.15791 -4.38416,2.20688 -6.65354,3.14686 -2.26932,0.94001 -4.57928,1.76653 -6.92987,2.47957 -2.35055,0.71305 -4.73041,1.30916 -7.13959,1.78836 -2.40911,0.47922 -4.83593,0.83921 -7.28042,1.07997 C 443.90683,150.87962 441.45639,151 439,151 c -2.45633,0 -4.90677,-0.12038 -7.35129,-0.36115 -2.44452,-0.24076 -4.87137,-0.60075 -7.28052,-1.07997 -2.40914,-0.4792 -4.789,-1.07531 -7.13958,-1.78836 -2.35059,-0.71304 -4.66056,-1.53956 -6.92993,-2.47957 -2.26935,-0.93998 -4.48719,-1.98895 -6.65348,-3.14686 -2.16632,-1.15791 -4.27066,-2.41921 -6.31305,-3.78388 -2.04236,-1.36467 -4.01291,-2.82614 -5.91168,-4.38443 -1.89877,-1.55828 -3.71661,-3.20588 -5.45352,-4.94278 -1.73688,-1.73689 -3.38446,-3.55472 -4.94275,-5.4535 -1.55832,-1.89878 -3.01981,-3.86936 -4.38449,-5.91174 -1.36466,-2.04236 -2.62592,-4.1467 -3.78384,-6.313 -1.1579,-2.16631 -2.20685,-4.38414 -3.14689,-6.6535 -0.94,-2.26936 -1.76651,-4.57933 -2.47955,-6.929905 -0.71304,-2.350579 -1.30914,-4.730439 -1.78836,-7.139588 -0.47922,-2.409141 -0.8392,-4.835968 -1.07996,-7.280479 C 364.12036,80.906776 364,78.456345 364,76 c 0,-2.456345 0.12036,-4.906776 0.36111,-7.351288 0.24076,-2.444511 0.60074,-4.871345 1.07996,-7.280495 0.47919,-2.409141 1.07532,-4.789001 1.78836,-7.139575 0.71304,-2.350571 1.53955,-4.660538 2.47952,-6.929905 0.94004,-2.26936 1.98902,-4.487194 3.14692,-6.653496 1.15792,-2.166298 2.41918,-4.270634 3.78384,-6.313011 1.36468,-2.042374 2.82617,-4.012949 4.38446,-5.911728 1.55832,-1.898777 3.2059,-3.716614 4.94278,-5.453512 1.73691,-1.736897 3.55475,-3.38449 5.45352,-4.942776 1.89877,-1.558287 3.86932,-3.019767 5.91168,-4.384438 2.04239,-1.36467 4.14673,-2.62596 6.31305,-3.7838714 2.16629,-1.1579113 4.38413,-2.2068682 6.65348,-3.1468706 2.26937,-0.940001 4.57934,-1.766521 6.9299,-2.4795595 2.35061,-0.7130386 4.73047,-1.3091621 7.13961,-1.7883708 2.40915,-0.4792085 4.836,-0.8391945 7.28052,-1.0799582 C 434.09323,1.1203818 436.54367,1 439,1 c 2.45639,0 4.90683,0.1203818 7.35132,0.3611454 2.44449,0.2407638 4.87131,0.6007498 7.28042,1.0799583 2.40918,0.4792087 4.78904,1.0753322 7.13959,1.7883708 2.35059,0.7130385 4.66055,1.5395585 6.92987,2.4795595 2.26938,0.9400024 4.48725,1.9889593 6.65354,3.1468706 2.16632,1.1579124 4.27066,2.4192024 6.31298,3.7838724 2.04239,1.364671 4.01301,2.82615 5.91178,4.384437 1.89877,1.558286 3.71661,3.205879 5.45349,4.942776 1.73691,1.736898 3.38449,3.554735 4.94275,5.453512 1.55832,1.898779 3.01977,3.869354 4.38443,5.911728 1.36468,2.042377 2.62598,4.146713 3.7839,6.313011 1.15793,2.166302 2.20688,4.384136 3.14685,6.653496 0.94004,2.269367 1.76658,4.579334 2.47962,6.929905 0.71304,2.350574 1.30911,4.730434 1.7883,7.139575 0.47925,2.40915 0.83923,4.835984 1.08001,7.280495 C 513.87964,71.093224 514,73.543655 514,76 Z"
             style="fill:#ededed;fill-opacity:1;fill-rule:nonzero;stroke:none"
             id="path99" /><path
             d="m 514,76 c 0,2.456345 -0.12036,4.906776 -0.36115,7.351288 -0.24078,2.444511 -0.60076,4.871338 -1.08001,7.280479 -0.47919,2.409149 -1.07529,4.789009 -1.78833,7.139588 -0.71305,2.350575 -1.53958,4.660545 -2.47962,6.929905 -0.93997,2.26936 -1.98892,4.48719 -3.14685,6.65351 -1.15789,2.1663 -2.41919,4.27063 -3.7839,6.313 -1.36466,2.04238 -2.82611,4.01295 -4.3844,5.91174 -1.55826,1.89877 -3.20584,3.7166 -4.94275,5.45349 -1.73688,1.7369 -3.55472,3.3845 -5.45349,4.94278 -1.89877,1.55829 -3.86939,3.01976 -5.91178,4.38443 -2.04232,1.36467 -4.14666,2.62597 -6.31298,3.78388 -2.16629,1.15791 -4.38416,2.20688 -6.65354,3.14686 -2.26932,0.94001 -4.57928,1.76653 -6.92987,2.47957 -2.35055,0.71305 -4.73041,1.30916 -7.13959,1.78836 -2.40911,0.47922 -4.83593,0.83921 -7.28042,1.07997 C 443.90683,150.87962 441.45639,151 439,151 c -2.45633,0 -4.90677,-0.12038 -7.35129,-0.36115 -2.44452,-0.24076 -4.87137,-0.60075 -7.28052,-1.07997 -2.40914,-0.4792 -4.789,-1.07531 -7.13958,-1.78836 -2.35059,-0.71304 -4.66056,-1.53956 -6.92993,-2.47957 -2.26935,-0.93998 -4.48719,-1.98895 -6.65348,-3.14686 -2.16632,-1.15791 -4.27066,-2.41921 -6.31305,-3.78388 -2.04236,-1.36467 -4.01291,-2.82614 -5.91168,-4.38443 -1.89877,-1.55828 -3.71661,-3.20588 -5.45352,-4.94278 -1.73688,-1.73689 -3.38446,-3.55472 -4.94275,-5.4535 -1.55832,-1.89878 -3.01981,-3.86936 -4.38449,-5.91174 -1.36466,-2.04236 -2.62592,-4.1467 -3.78384,-6.313 -1.1579,-2.16631 -2.20685,-4.38414 -3.14689,-6.6535 -0.94,-2.26936 -1.76651,-4.57933 -2.47955,-6.929905 -0.71304,-2.350579 -1.30914,-4.730439 -1.78836,-7.139588 -0.47922,-2.409141 -0.8392,-4.835968 -1.07996,-7.280479 C 364.12036,80.906776 364,78.456345 364,76 c 0,-2.456345 0.12036,-4.906776 0.36111,-7.351288 0.24076,-2.444511 0.60074,-4.871345 1.07996,-7.280495 0.47919,-2.409141 1.07532,-4.789001 1.78836,-7.139575 0.71304,-2.350571 1.53955,-4.660538 2.47952,-6.929905 0.94004,-2.26936 1.98902,-4.487194 3.14692,-6.653496 1.15792,-2.166298 2.41918,-4.270634 3.78384,-6.313011 1.36468,-2.042374 2.82617,-4.012949 4.38446,-5.911728 1.55832,-1.898777 3.2059,-3.716614 4.94278,-5.453512 1.73691,-1.736897 3.55475,-3.38449 5.45352,-4.942776 1.89877,-1.558287 3.86932,-3.019767 5.91168,-4.384438 2.04239,-1.36467 4.14673,-2.62596 6.31305,-3.7838714 2.16629,-1.1579113 4.38413,-2.2068682 6.65348,-3.1468706 2.26937,-0.940001 4.57934,-1.766521 6.9299,-2.4795595 2.35061,-0.7130386 4.73047,-1.3091621 7.13961,-1.7883708 2.40915,-0.4792085 4.836,-0.8391945 7.28052,-1.0799582 C 434.09323,1.1203818 436.54367,1 439,1 c 2.45639,0 4.90683,0.1203818 7.35132,0.3611454 2.44449,0.2407638 4.87131,0.6007498 7.28042,1.0799583 2.40918,0.4792087 4.78904,1.0753322 7.13959,1.7883708 2.35059,0.7130385 4.66055,1.5395585 6.92987,2.4795595 2.26938,0.9400024 4.48725,1.9889593 6.65354,3.1468706 2.16632,1.1579124 4.27066,2.4192024 6.31298,3.7838724 2.04239,1.364671 4.01301,2.82615 5.91178,4.384437 1.89877,1.558286 3.71661,3.205879 5.45349,4.942776 1.73691,1.736898 3.38449,3.554735 4.94275,5.453512 1.55832,1.898779 3.01977,3.869354 4.38443,5.911728 1.36468,2.042377 2.62598,4.146713 3.7839,6.313011 1.15793,2.166302 2.20688,4.384136 3.14685,6.653496 0.94004,2.269367 1.76658,4.579334 2.47962,6.929905 0.71304,2.350574 1.30911,4.730434 1.7883,7.139575 0.47925,2.40915 0.83923,4.835984 1.08001,7.280495 C 513.87964,71.093224 514,73.543655 514,76 Z"
             style="fill:none;stroke:#000000;stroke-width:1;stroke-linecap:butt;stroke-linejoin:miter;stroke-miterlimit:10;stroke-dasharray:none;stroke-opacity:1"
             id="path101" /></g><g
           id="g103"
           transform="scale(2.9947915)"><text
             transform="translate(413.82813,74)"
             style="font-variant:normal;font-weight:normal;font-size:12px;font-family:Arial;-inkscape-font-specification:ArialMT;writing-mode:lr-tb;fill:#000000;fill-opacity:1;fill-rule:nonzero;stroke:none"
             id="text107"><tspan
               x="0 8.6660156 15.339844 25.335938 32.009766 38.683594 45.357422"
               y="0"
               id="tspan105">Company</tspan></text><text
             transform="translate(413.82813,88)"
             style="font-variant:normal;font-weight:normal;font-size:12px;font-family:Arial;-inkscape-font-specification:ArialMT;writing-mode:lr-tb;fill:#000000;fill-opacity:1;fill-rule:nonzero;stroke:none"
             id="text111"><tspan
               x="0 8.0039062 14.003906 20.677734 24.673828 31.347656 34.681641 42.685547"
               y="0"
               id="tspan109">Azure AD</tspan></text></g><g
           id="g113"
           transform="matrix(2.9947915,0,0,2.9947915,1.4973957,1.4973957)"><path
             d="m 439,121 c -20,0 -25,15 -9,18 -16,6.60001 2,21 15,15 9,12 39,12 49,0 20,0 20,-12 7.5,-18 12.5,-12 -7.5,-24 -25,-18 -12.5,-9 -32.5,-9 -37.5,3 z"
             style="fill:#dbdbdb;fill-opacity:1;fill-rule:nonzero;stroke:none"
             id="path115" /><path
             d="m 439,121 c -20,0 -25,15 -9,18 -16,6.60001 2,21 15,15 9,12 39,12 49,0 20,0 20,-12 7.5,-18 12.5,-12 -7.5,-24 -25,-18 -12.5,-9 -32.5,-9 -37.5,3 z"
             style="fill:none;stroke:#000000;stroke-width:1;stroke-linecap:butt;stroke-linejoin:miter;stroke-miterlimit:10;stroke-dasharray:none;stroke-opacity:1"
             id="path117" /><path
             d="m 384,186 40,40 -40,40 -40,-40 z"
             style="fill:#ededed;fill-opacity:1;fill-rule:nonzero;stroke:none"
             id="path119" /><path
             d="m 384,186 40,40 -40,40 -40,-40 z"
             style="fill:none;stroke:#000000;stroke-width:1;stroke-linecap:butt;stroke-linejoin:miter;stroke-miterlimit:10;stroke-dasharray:none;stroke-opacity:1"
             id="path121" /></g><g
           id="g123"
           transform="scale(2.9947915)"><text
             transform="translate(332.46875,282)"
             style="font-variant:normal;font-weight:normal;font-size:12px;font-family:Arial;-inkscape-font-specification:ArialMT;writing-mode:lr-tb;fill:#000000;fill-opacity:1;fill-rule:nonzero;stroke:none"
             id="text127"><tspan
               x="0 8.0039062 14.003906 20.677734 24.673828 31.347656 34.681641 42.685547 51.351562 54.685547 62.027344 68.701172 72.697266 75.363281 78.697266 81.363281 88.037109 94.710938 97.376953"
               y="0"
               id="tspan125">Azure AD Verifiable</tspan></text><text
             transform="translate(345.8125,296)"
             style="font-variant:normal;font-weight:normal;font-size:12px;font-family:Arial;-inkscape-font-specification:ArialMT;writing-mode:lr-tb;fill:#000000;fill-opacity:1;fill-rule:nonzero;stroke:none"
             id="text131"><tspan
               x="0 8.6660156 12.662109 19.335938 26.009766 32.683594 39.357422 42.691406 45.357422 52.03125 54.697266 58.03125 66.035156 74.039062"
               y="0"
               id="tspan129">Credential API</tspan></text><text
             transform="translate(203.14063,119)"
             style="font-variant:normal;font-weight:normal;font-size:12px;font-family:Arial;-inkscape-font-specification:ArialMT;writing-mode:lr-tb;fill:#000000;fill-opacity:1;fill-rule:nonzero;stroke:none"
             id="text135"><tspan
               x="0 9.9960938 12.662109 18.662109 22.658203 29.332031 35.332031 42.005859 45.339844 48.673828 52.007812 60.011719 66.685547 70.019531 76.693359 83.367188 90.041016 93.375 96.041016 102.04102 108.71484 112.04883 118.72266"
               y="0"
               id="tspan133">Microsoft Authenticator</tspan></text><text
             transform="translate(253.82813,133)"
             style="font-variant:normal;font-weight:normal;font-size:12px;font-family:Arial;-inkscape-font-specification:ArialMT;writing-mode:lr-tb;fill:#000000;fill-opacity:1;fill-rule:nonzero;stroke:none"
             id="text139"><tspan
               x="0 8.0039062 14.677734"
               y="0"
               id="tspan137">App</tspan></text></g><g
           id="g141"
           transform="matrix(2.9947915,0,0,2.9947915,1.4973957,1.4973957)"><path
             d="m 24,340 h 550 v 50 H 24 Z"
             style="fill:#bdbdbd;fill-opacity:1;fill-rule:nonzero;stroke:none"
             id="path143" /><path
             d="m 24,340 h 550 v 50 H 24 Z"
             style="fill:none;stroke:#000000;stroke-width:1;stroke-linecap:butt;stroke-linejoin:miter;stroke-miterlimit:10;stroke-dasharray:none;stroke-opacity:1"
             id="path145" /></g><g
           id="g147"
           transform="scale(2.9947915)"><text
             transform="translate(248.76563,381)"
             style="font-variant:normal;font-weight:normal;font-size:11.66px;font-family:Arial;-inkscape-font-specification:ArialMT;writing-mode:lr-tb;fill:#000000;fill-opacity:1;fill-rule:nonzero;stroke:none"
             id="text151"><tspan
               x="0 6.484726 12.969452 16.208969 19.448486 27.225601 29.816071 33.055588 38.885574 45.3703 47.96077 54.445496 57.685013 66.105484 72.59021 75.829727 84.250198 90.734924 94.617783"
               y="0"
               id="tspan149">L1: Bitcoin Network</tspan></text></g><g
           id="g153"
           transform="matrix(2.9947915,0,0,2.9947915,1.4973957,1.4973957)"><path
             d="m 1,311 h 550 v 46 H 1 Z"
             style="fill:#e8e8e8;fill-opacity:1;fill-rule:nonzero;stroke:none"
             id="path155" /><path
             d="m 1,311 h 550 v 46 H 1 Z"
             style="fill:none;stroke:#000000;stroke-width:1;stroke-linecap:butt;stroke-linejoin:miter;stroke-miterlimit:10;stroke-dasharray:none;stroke-opacity:1"
             id="path157" /></g><g
           id="g159"
           transform="scale(2.9947915)"><text
             transform="translate(231.64063,339)"
             style="font-variant:normal;font-weight:normal;font-size:12px;font-family:Arial;-inkscape-font-specification:ArialMT;writing-mode:lr-tb;fill:#000000;fill-opacity:1;fill-rule:nonzero;stroke:none"
             id="text163"><tspan
               x="0 6.6738281 13.347656 16.681641 20.015625 23.349609 32.683594 41.349609 44.683594 53.349609 60.023438 63.357422 72.023438 78.697266 82.693359"
               y="0"
               id="tspan161">L2: ION Network</tspan></text></g><g
           id="g165"
           transform="matrix(2.9947915,0,0,2.9947915,1.4973957,1.4973957)"><path
             d="m 199.38646,69.906448 0.76112,-0.761116 0.7071,0.707108 -0.76113,0.761116 z m 1.51611,-1.516121 0.74887,-0.748886 0.70713,0.707093 -0.74887,0.748886 z m 1.49166,-1.491653 0.73663,-0.736656 0.70712,0.707092 -0.73663,0.736656 z m 1.4672,-1.467201 0.72443,-0.724419 0.70709,0.707108 -0.72442,0.724418 z m 1.44272,-1.442719 0.71219,-0.712188 0.70709,0.707107 -0.71218,0.712189 z m 1.41825,-1.418251 0.69993,-0.699955 0.70713,0.7071 -0.69994,0.699955 z m 1.39378,-1.393787 0.68771,-0.687721 0.70713,0.7071 -0.68772,0.687721 z m 1.36932,-1.369324 0.6755,-0.675484 0.70709,0.707108 -0.67549,0.675484 z m 1.34487,-1.344852 0.66325,-0.663254 0.70709,0.707107 -0.66325,0.663254 z m 1.32037,-1.320385 0.69335,-0.693344 0.70709,0.707107 -0.69335,0.693344 z m 1.46121,-1.461209 0.75917,-0.759163 0.7071,0.707108 -0.75917,0.759163 z m 1.50963,-1.509628 0.74178,-0.741768 0.70709,0.707108 -0.74178,0.741768 z m 1.47484,-1.474842 0.72438,-0.724369 0.70709,0.707115 -0.72438,0.724369 z m 1.44005,-1.440037 0.70697,-0.70697 0.70709,0.707108 -0.70697,0.70697 z m 1.40524,-1.40525 0.68958,-0.689576 0.70709,0.707108 -0.68958,0.689575 z m 1.37044,-1.370449 0.67216,-0.672181 0.70713,0.7071 -0.67217,0.672181 z m 1.33566,-1.335659 0.65477,-0.654778 0.70712,0.7071 -0.65477,0.654777 z m 1.30087,-1.300881 0.19777,-0.197761 0.46285,-0.460202 0.70508,0.70913 -0.46083,0.458194 -0.19777,0.197762 z m 1.34203,-1.326172 c 0.22778,-0.221565 0.45827,-0.443947 0.69144,-0.667145 l 0.69146,0.722397 c -0.23013,0.220288 -0.45867,0.440815 -0.68563,0.661576 z m 1.39388,-1.334224 c 0.2357,-0.222092 0.47352,-0.444428 0.71344,-0.667008 l 0.68011,0.733101 c -0.23807,0.220871 -0.474,0.441448 -0.70779,0.661728 z m 1.43788,-1.33395 c 0.24318,-0.222176 0.48834,-0.44447 0.73546,-0.666882 l 0.66894,0.743301 c -0.24522,0.220696 -0.48852,0.441311 -0.7299,0.661847 z m 1.48192,-1.333703 c 0.2509,-0.222473 0.50338,-0.444725 0.75746,-0.666751 l 0.65802,0.752998 c -0.25237,0.220528 -0.50304,0.441185 -0.75203,0.661968 z m 1.52595,-1.333461 c 0.25804,-0.222256 0.51787,-0.44447 0.7795,-0.666642 l 0.64727,0.762246 c -0.25955,0.220413 -0.5176,0.441104 -0.77415,0.662078 z m 1.57127,-1.334324 0.79889,-0.66436 0.63941,0.768875 -0.79889,0.66436 z m 1.61399,-1.332962 0.82095,-0.66436 0.62906,0.777343 -0.82095,0.66436 z m 1.5963,-1.28381 0.74507,-0.588173 0.61963,0.784905 -0.74508,0.588173 z m 1.50317,-1.179764 0.76236,-0.588173 0.61084,0.791748 -0.76236,0.588173 z m 1.53767,-1.179626 0.77967,-0.588173 0.60223,0.798317 -0.77966,0.588173 z m 1.57219,-1.179485 0.79697,-0.588173 0.59381,0.804603 -0.79697,0.588173 z m 1.60671,-1.17936 0.81425,-0.588173 0.58554,0.810631 -0.81425,0.588173 z m 1.6412,-1.179235 0.83156,-0.588173 0.57745,0.816417 -0.83155,0.588173 z m 1.67571,-1.179114 0.84884,-0.588173 0.56955,0.821961 -0.84884,0.588173 z m 1.71023,-1.179006 0.86615,-0.588171 0.56177,0.827285 -0.86615,0.588171 z m 1.74414,-1.178498 0.31939,-0.213302 c 0.16703,-0.111355 0.33517,-0.222069 0.50441,-0.33214 l 0.54522,0.838283 c -0.1662,0.108105 -0.33095,0.216587 -0.49425,0.325449 l -0.31938,0.213303 z m 1.63103,-1.060505 c 0.27249,-0.170568 0.54823,-0.339935 0.82724,-0.508096 l 0.51621,0.85646 c -0.27424,0.165283 -0.54519,0.331705 -0.81287,0.499266 z m 1.67447,-1.009244 c 0.28563,-0.165827 0.57469,-0.330565 0.86722,-0.494214 l 0.48822,0.872719 c -0.28812,0.161181 -0.57257,0.323282 -0.85337,0.486309 z m 1.75442,-0.981495 c 0.29892,-0.161204 0.60132,-0.32133 0.9072,-0.480376 l 0.46134,0.887226 c -0.30123,0.156628 -0.59919,0.3144 -0.89386,0.473319 z m 1.8344,-0.953843 c 0.31212,-0.156522 0.62784,-0.312046 0.94718,-0.466566 l 0.43554,0.900162 c -0.31503,0.152432 -0.62649,0.305863 -0.93442,0.460291 z m 1.91434,-0.926254 c 0.28375,-0.132494 0.57056,-0.264349 0.86041,-0.395567 l 0.41242,0.910996 c -0.28568,0.129322 -0.56891,0.259544 -0.84974,0.390669 z m 1.73413,-0.785055 c 0.29385,-0.129007 0.59015,-0.257103 0.88882,-0.384287 l 0.39179,0.920067 c -0.29599,0.126032 -0.58887,0.252655 -0.87863,0.379866 z m 1.79291,-0.763382 c 0.30343,-0.125317 0.60983,-0.249948 0.91922,-0.373896 l 0.37188,0.928273 c -0.30569,0.122476 -0.60882,0.245777 -0.90939,0.369905 z m 1.85354,-0.742613 c 0.31372,-0.121935 0.63025,-0.243109 0.94956,-0.363523 l 0.35284,0.935676 c -0.31607,0.1192 -0.62945,0.239174 -0.94015,0.359927 z m 1.91419,-0.721876 c 0.32406,-0.118578 0.65066,-0.236305 0.97986,-0.35318 l 0.33459,0.942364 c -0.32626,0.115837 -0.64987,0.232477 -0.97082,0.349922 z m 1.97488,-0.701191 c 0.33423,-0.115154 0.67096,-0.229437 1.01019,-0.34285 l 0.31708,0.948403 c -0.33655,0.112516 -0.67038,0.225817 -1.00152,0.339905 z m 1.92136,-0.643429 0.90481,-0.290674 0.30585,0.952076 -0.90481,0.290674 z m 1.82849,-0.579696 0.92819,-0.282881 0.29151,0.956562 -0.9282,0.282881 z m 1.87494,-0.563917 0.95157,-0.275084 0.27771,0.960665 -0.95157,0.275083 z m 1.92151,-0.548148 0.97497,-0.267289 0.26441,0.964415 -0.97498,0.267289 z m 1.96801,-0.532394 0.99836,-0.259496 0.25158,0.96784 -0.99835,0.259496 z m 2.01459,-0.516657 1.0217,-0.251699 0.2392,0.97097 -1.0217,0.251699 z m 2.03186,-0.494017 0.92197,-0.215662 0.22778,0.973715 -0.92196,0.215662 z m 1.8581,-0.429451 0.94018,-0.209585 0.21759,0.976044 -0.94018,0.209585 z m 1.8944,-0.417204 0.95841,-0.203508 0.2077,0.978191 -0.9584,0.203508 z m 1.93073,-0.404968 0.97665,-0.197428 0.19812,0.980173 -0.97665,0.197428 z m 1.96701,-0.392732 0.99487,-0.191352 0.18891,0.982 -0.99488,0.191352 z m 2.00339,-0.380506 1.01309,-0.185275 0.17987,0.983684 -1.01309,0.185276 z m 2.03967,-0.368286 1.03134,-0.179196 0.17121,0.985239 -1.03135,0.179196 z m 2.0751,-0.355911 0.1073,-0.01791 c 0.27094,-0.04516 0.54361,-0.08911 0.818,-0.131844 l 0.15387,0.988087 c -0.27036,0.04211 -0.53946,0.08548 -0.80725,0.130111 l -0.1073,0.01791 z m 1.84766,-0.287905 c 0.30936,-0.04451 0.62067,-0.08749 0.93387,-0.128931 l 0.13116,0.991362 c -0.30966,0.04097 -0.61721,0.08343 -0.92263,0.127376 z m 1.87927,-0.248644 c 0.31699,-0.038361 0.63596,-0.075194 0.95691,-0.1105003 l 0.10932,0.9940033 c -0.31736,0.03491 -0.63272,0.07132 -0.94611,0.109253 z m 1.92533,-0.2117948 c 0.32473,-0.032231 0.65139,-0.062927 0.97995,-0.09209 l 0.0884,0.9960848 c -0.32505,0.02885 -0.64826,0.05922 -0.96958,0.09111 l -0.0987,-0.9951101 z m 1.97146,-0.1749783 c 0.33252,-0.026104 0.66684,-0.050668 1.00299,-0.07369 l 0.0684,0.9976611 c -0.33294,0.02281 -0.66397,0.04713 -0.9931,0.07296 l -0.0783,-0.9969327 z m 2.01755,-0.1381893 c 0.34003,-0.019963 0.68204,-0.0384 1.02606,-0.055307 l 0.0491,0.9987944 c -0.34079,0.01675 -0.67965,0.03502 -1.01654,0.05479 l -0.0586,-0.998281 z m 2.06366,-0.1014271 c 0.34772,-0.013841 0.69745,-0.026153 1.04916,-0.036936 l 0.0306,0.9995315 c -0.34866,0.01069 -0.69531,0.02289 -1.04001,0.03661 l -0.0398,-0.9992087 z m 2.112,-0.064733 1.06784,-0.0185 0.0173,0.9998495 -1.06784,0.0185 z m 2.15582,-0.027937 1.04889,-3.844e-4 3.7e-4,0.9999999 -1.04889,3.84e-4 z m 1.9787,0.00622 0.93085,0.012965 -0.0139,0.9999025 -0.93085,-0.01296 0.0139,-0.9999027 z m 1.87653,0.032481 0.94717,0.025793 -0.0272,0.9996295 -0.94717,-0.02579 0.0272,-0.9996296 z m 1.9089,0.058215 0.9635,0.03862 -0.04,0.9991975 -0.9635,-0.03862 z m 1.94138,0.083939 0.97986,0.051448 -0.0524,0.9986255 -0.97986,-0.05145 0.0524,-0.9986254 z m 1.97384,0.1096583 0.99616,0.064274 -0.0644,0.9979252 -0.99616,-0.06427 0.0644,-0.997925 z m 2.00626,0.1353683 1.01251,0.077101 -0.0759,0.9971149 -1.01251,-0.0771 0.0759,-0.9971127 z m 2.03876,0.1610718 1.02881,0.089928 -0.0871,0.9962011 -1.02881,-0.08993 0.0871,-0.9962008 z m 2.07119,0.1867701 1.04517,0.102755 -0.0978,0.995202 -1.04516,-0.102756 0.0978,-0.995201 z m 2.10367,0.212464 1.0615,0.115583 -0.10828,0.994123 -1.06149,-0.115582 z m 2.13611,0.238145 1.02088,0.121491 -0.11817,0.992992 -1.02087,-0.12149 z m 1.94757,0.23595 0.92832,0.118568 -0.12671,0.991941 -0.92832,-0.118568 z m 1.86658,0.242304 0.94015,0.127841 -0.13476,0.990881 -0.94016,-0.127841 z m 1.89011,0.260869 0.9519,0.137113 -0.14258,0.989784 -0.9519,-0.137113 z m 1.91354,0.279425 0.96374,0.146387 -0.15014,0.988661 -0.96375,-0.146387 z m 1.93713,0.297984 0.97556,0.155659 -0.15759,0.987509 -0.97556,-0.15566 z m 1.96054,0.316541 0.98734,0.16493 -0.16473,0.986334 -0.98734,-0.16493 z m 1.98413,0.335094 0.99918,0.174204 -0.17175,0.98514 -0.99918,-0.174204 z m 2.00763,0.353651 1.01096,0.183472 -0.17859,0.983927 -1.01095,-0.183474 z m 2.03113,0.372199 1.02277,0.192746 -0.18518,0.982702 -1.02277,-0.192746 z m 2.05466,0.390748 1.03458,0.202021 -0.19165,0.981465 -1.03458,-0.202021 z m 2.07819,0.409302 1.04635,0.211292 -0.19794,0.980215 -1.04635,-0.211292 z m 2.10159,0.427827 0.91965,0.191499 -0.20386,0.979 -0.91965,-0.191499 z m 1.84088,0.385882 0.92303,0.1973 -0.20904,0.97791 -0.92304,-0.1973 z m 1.85303,0.398613 0.93185,0.204227 -0.21411,0.976815 -0.93185,-0.204227 z m 1.87057,0.412464 0.94068,0.211153 -0.219,0.975719 -0.94067,-0.211153 z m 1.88819,0.426314 0.94949,0.218079 -0.22388,0.974624 -0.94949,-0.218078 z m 1.90576,0.440172 0.95831,0.225004 -0.22858,0.973526 -0.95831,-0.225004 z m 1.92334,0.454022 0.9671,0.231931 -0.23322,0.972428 -0.9671,-0.231932 z m 1.94095,0.467872 0.97595,0.238858 -0.23773,0.971332 -0.97596,-0.238857 z m 1.95846,0.481722 0.98477,0.245783 -0.24212,0.970238 -0.98478,-0.245783 z m 1.97614,0.495577 0.99359,0.252708 -0.24652,0.969147 -0.99359,-0.252708 z m 1.99368,0.509427 1.00238,0.259637 -0.25073,0.968052 -1.00238,-0.259637 z m 2.01126,0.523274 1.01123,0.266559 -0.25488,0.966969 -1.01123,-0.26656 z m 2.0289,0.537128 1.02002,0.273486 -0.25897,0.965886 -1.02002,-0.273487 z m 2.04645,0.550974 1.02884,0.280415 -0.26294,0.964805 -1.02884,-0.280414 z"
             style="fill:#000000;fill-opacity:1;fill-rule:nonzero;stroke:none"
             id="path167" /><path
             d="m 194.78999,75.209999 3.30001,-6.599998 3.3,3.300003 z"
             style="fill:#000000;fill-opacity:1;fill-rule:nonzero;stroke:none"
             id="path169" /><path
             d="m 194.78999,75.209999 3.30001,-6.599998 3.3,3.300003 z"
             style="fill:none;stroke:#000000;stroke-width:1;stroke-linecap:butt;stroke-linejoin:miter;stroke-miterlimit:10;stroke-dasharray:none;stroke-opacity:1"
             id="path171" /><path
             d="m 384.89001,22.67 -7.68002,1.530001 2.62,-2.91 -0.76999,-3.84 z"
             style="fill:#000000;fill-opacity:1;fill-rule:nonzero;stroke:none"
             id="path173" /><path
             d="m 384.89001,22.67 -7.68002,1.530001 2.62,-2.91 -0.76999,-3.84 z"
             style="fill:none;stroke:#000000;stroke-width:1;stroke-linecap:butt;stroke-linejoin:miter;stroke-miterlimit:10;stroke-dasharray:none;stroke-opacity:1"
             id="path175" /><path
             d="m 47.880039,305.77377 0.01244,-0.99991 0.999924,0.0125 -0.01244,0.9999 m -0.975048,-2.01229 0.01244,-0.99991 0.999923,0.0125 -0.01244,0.99991 m -0.975045,-2.0123 0.01244,-0.99991 0.999924,0.0125 -0.01244,0.99991 m -0.975048,-2.0123 0.01244,-0.99991 0.999923,0.0125 -0.01244,0.99991 m -0.975048,-2.0123 0.01244,-0.9999 0.999924,0.0125 -0.01244,0.9999 m -0.975044,-2.01229 0.01244,-0.99991 0.999924,0.0125 -0.01244,0.99991 m -0.975048,-2.0123 0.01244,-0.99991 0.999924,0.0125 -0.01244,0.99991 m -0.975048,-2.01227 0.01244,-0.99994 0.999924,0.0125 -0.01244,0.99994 m -0.975044,-2.0123 0.01244,-0.99993 0.999923,0.0125 -0.01244,0.99994 m -0.975048,-2.0123 0.01244,-0.99994 0.999924,0.0125 -0.01244,0.99994 m -0.975044,-2.0123 0.01244,-0.99994 0.999924,0.0125 -0.01244,0.99994 m -0.975048,-2.0123 0.01244,-0.99994 0.999924,0.0125 -0.01244,0.99994 m -0.975048,-2.0123 0.01244,-0.99993 0.999924,0.0125 -0.01244,0.99994 m -0.975044,-2.0123 0.01244,-0.99991 0.999923,0.0125 -0.01244,0.99991 m -0.975048,-2.0123 0.01244,-0.99991 0.999924,0.0125 -0.01244,0.99991 m -0.975048,-2.0123 0.01244,-0.99991 0.999923,0.0125 -0.01244,0.9999 m -0.975045,-2.01229 0.01244,-0.99991 0.999924,0.0125 -0.01244,0.99991 m -0.975048,-2.0123 0.01244,-0.99991 0.999923,0.0125 -0.01244,0.99991 m -0.975048,-2.0123 0.01244,-0.99991 0.999924,0.0125 -0.01244,0.99991 m -0.975044,-2.0123 0.01244,-0.99991 0.999924,0.0125 -0.01244,0.9999 m -0.975048,-2.01229 0.01244,-0.99991 0.999924,0.0125 -0.01244,0.99991 m -0.975048,-2.01227 0.01244,-0.99994 0.999924,0.0125 -0.01244,0.99994"
             style="fill:#000000;fill-opacity:1;fill-rule:nonzero;stroke:none"
             id="path177" /><path
             d="m 48.310001,311.03 -3.409999,-7.04001 3.479999,1.79001 3.520001,-1.70001 z"
             style="fill:#000000;fill-opacity:1;fill-rule:nonzero;stroke:none"
             id="path179" /><path
             d="m 48.310001,311.03 -3.409999,-7.04001 3.479999,1.79001 3.520001,-1.70001 z"
             style="fill:none;stroke:#000000;stroke-width:1;stroke-linecap:butt;stroke-linejoin:miter;stroke-miterlimit:10;stroke-dasharray:none;stroke-opacity:1"
             id="path181" /><path
             d="m 48.990002,257.12 3.41,7.04 -3.480004,-1.79 -3.519996,1.70001 z"
             style="fill:#000000;fill-opacity:1;fill-rule:nonzero;stroke:none"
             id="path183" /><path
             d="m 48.990002,257.12 3.41,7.04 -3.480004,-1.79 -3.519996,1.70001 z"
             style="fill:none;stroke:#000000;stroke-width:1;stroke-linecap:butt;stroke-linejoin:miter;stroke-miterlimit:10;stroke-dasharray:none;stroke-opacity:1"
             id="path185" /><path
             d="m 337.62796,226.47 -1,-0.004 0.004,-1 1,0.004 m -2.00406,0.99178 -1,-0.004 0.004,-1 1,0.004 m -2.00409,0.99179 -1,-0.004 0.004,-1 1,0.004 m -2.00406,0.99177 -1,-0.004 0.004,-1 1,0.004 m -2.00409,0.99179 -1,-0.004 0.004,-1 1,0.004 m -2.00406,0.99178 -1,-0.004 0.004,-1 1,0.004 m -2.00409,0.99179 -0.99997,-0.004 0.004,-1 0.99997,0.004 m -2.00406,0.99178 -1,-0.004 0.004,-1 1,0.004 m -2.00409,0.99179 -0.99997,-0.004 0.004,-1 0.99997,0.004 m -2.00406,0.99177 -1,-0.004 0.004,-1 1,0.004 m -2.00406,0.99179 -1,-0.004 0.004,-1 1,0.004 m -2.00409,0.99178 -1,-0.004 0.004,-1 1,0.004 m -2.00406,0.99179 -1,-0.004 0.004,-1 1,0.004 m -2.00409,0.99177 -0.99997,-0.004 0.004,-1 0.99997,0.004 m -2.00406,0.99178 -1,-0.004 0.004,-1 1,0.004 m -2.00409,0.99179 -0.99997,-0.004 0.004,-1 0.99997,0.004 m -2.00406,0.99178 -1,-0.004 0.004,-1 1,0.004 m -2.00409,0.99179 -0.99996,-0.004 0.004,-1 0.99997,0.004 m -2.00405,0.99177 -1,-0.004 0.004,-1 1,0.004 m -2.00408,0.99179 -0.99997,-0.004 0.004,-1 0.99996,0.004 m -2.00405,0.99178 -1,-0.004 0.004,-1 1,0.004 m -2.00406,0.99179 -1,-0.004 0.004,-1 1,0.004 m -2.00409,0.99178 -1,-0.004 0.004,-1 1,0.004 m -2.00406,0.99179 -1,-0.004 0.004,-1 1,0.004 m -2.00409,0.99177 -0.99997,-0.004 0.004,-1 0.99997,0.004 m -2.00406,0.99179 -1,-0.004 0.004,-1 1,0.004 m -2.00409,0.99178 -0.99997,-0.004 0.004,-1 0.99997,0.004 m -2.00406,0.99177 -1,-0.004 0.004,-1 1,0.004 m -2.00406,0.99179 -1,-0.004 0.004,-1 1,0.004 m -2.00409,0.99178 -1,-0.004 0.004,-1 1,0.004 m -2.00406,0.99179 -1,-0.004 0.004,-1 1,0.004 m -2.00409,0.99178 -0.99997,-0.004 0.004,-1 0.99997,0.004 m -2.00406,0.99179 -1,-0.004 0.004,-1 1,0.004 m -2.00409,0.99177 -1,-0.004 0.004,-1 1,0.004 m -2.00406,0.99179 -1,-0.004 0.004,-1 1,0.004 m -2.00406,0.99178 -1,-0.004 0.004,-1 1,0.004 m -2.00409,0.99179 -1,-0.004 0.004,-1 1,0.004 m -2.00409,0.99177 -0.99997,-0.004 0.004,-1 0.99997,0.004 m -2.00406,0.9918 -1,-0.004 0.004,-1 1,0.004 m -2.00406,0.99177 -1,-0.004 0.004,-1 1,0.004 m -2.00409,0.99178 -1,-0.004 0.004,-1 1,0.004 m -2.00407,0.99179 -1,-0.004 0.004,-1 1,0.004 m -2.00412,0.99177 -0.99999,-0.004 0.004,-1 0.99999,0.004 m -2.00409,0.99179 -1,-0.004 0.004,-1 1,0.004 m -2.00411,0.99178 -0.99998,-0.004 0.004,-1 0.99998,0.004 m -2.0041,0.99179 -1,-0.004 0.004,-1 1,0.004 m -2.00411,0.99178 -0.99998,-0.004 0.004,-1 0.99998,0.004 m -2.0041,0.99179 -1,-0.004 0.004,-1 1,0.004 m -2.00411,0.99177 -0.99998,-0.004 0.004,-1 0.99998,0.004 m -2.0041,0.99179 -0.99999,-0.004 0.004,-1 0.99999,0.004 m -2.00409,0.99178 -1,-0.004 0.004,-1 1,0.004 m -2.00412,0.99179 -0.99999,-0.004 0.004,-1 0.99999,0.004 m -2.00409,0.99177 -1,-0.004 0.004,-1 1,0.004 m -2.0041,0.99178 -0.99999,-0.004 0.004,-1 0.99999,0.004 m -2.00411,0.99179 -1,-0.004 0.004,-1 1,0.004 m -2.0041,0.99178 -0.99999,-0.004 0.004,-1 0.99999,0.004 m -2.00411,0.99179 -1,-0.004 0.004,-1 1,0.004 m -2.0041,0.99177 -0.99999,-0.004 0.004,-1 0.99999,0.004 m -2.00411,0.99179 -0.99998,-0.004 0.004,-1 0.99998,0.004 m -2.00409,0.99178 -1,-0.004 0.004,-1 1,0.004 m -2.00412,0.99179 -0.99998,-0.004 0.004,-1 0.99998,0.004 m -2.00409,0.99177 -1,-0.004 0.004,-1 1,0.004 m -2.0041,0.9918 -0.99999,-0.004 0.004,-1 0.99999,0.004 m -2.00411,0.99177 -0.56106,-0.002 0.004,-1 0.56106,0.002"
             style="fill:#000000;fill-opacity:1;fill-rule:nonzero;stroke:none"
             id="path187" /><path
             d="m 342.88,226 -7.01,3.47 1.76,-3.5 -1.73001,-3.5 z"
             style="fill:#000000;fill-opacity:1;fill-rule:nonzero;stroke:none"
             id="path189" /><path
             d="m 342.88,226 -7.01,3.47 1.76,-3.5 -1.73001,-3.5 z"
             style="fill:none;stroke:#000000;stroke-width:1;stroke-linecap:butt;stroke-linejoin:miter;stroke-miterlimit:10;stroke-dasharray:none;stroke-opacity:1"
             id="path191" /><path
             d="m 205.82001,225.42 7.00999,-3.47 -1.75999,3.5 1.72999,3.5 z"
             style="fill:#000000;fill-opacity:1;fill-rule:nonzero;stroke:none"
             id="path193" /><path
             d="m 205.82001,225.42 7.00999,-3.47 -1.75999,3.5 1.72999,3.5 z"
             style="fill:none;stroke:#000000;stroke-width:1;stroke-linecap:butt;stroke-linejoin:miter;stroke-miterlimit:10;stroke-dasharray:none;stroke-opacity:1"
             id="path195" /></g></g></g></g></svg>
