<?xml version="1.0" encoding="UTF-8" standalone="no"?>
<!-- Created with Inkscape (http://www.inkscape.org/) -->

<svg
   version="1.1"
   id="svg9"
   xml:space="preserve"
   width="357.44"
   height="196.15999"
   viewBox="0 0 357.44 196.15999"
   xmlns="http://www.w3.org/2000/svg"
   xmlns:svg="http://www.w3.org/2000/svg"><defs
     id="defs13"><clipPath
       clipPathUnits="userSpaceOnUse"
       id="clipPath23"><path
         d="M 0,0 H 1116.6665 V 610.72382 H 0 Z"
         clip-rule="evenodd"
         id="path21" /></clipPath><clipPath
       clipPathUnits="userSpaceOnUse"
       id="clipPath35"><path
         d="M 0,0 H 1116.6665 V 607.73004 H 0 Z"
         clip-rule="evenodd"
         id="path33" /></clipPath></defs><g
     id="g15"
     transform="matrix(0.31999998,0,0,0.31999998,0,1.5706665e-6)"><g
       id="g17"><g
         id="g19"
         clip-path="url(#clipPath23)"><g
           id="g25"
           transform="scale(2.9937441)"><path
             d="M 0,0 H 373 V 204 H 0 Z"
             style="fill:#ffffff;fill-opacity:1;fill-rule:nonzero;stroke:none"
             id="path27" /></g></g></g><g
       id="g29"><g
         id="g31"
         clip-path="url(#clipPath35)"><g
           id="g37"
           transform="matrix(2.9937441,0,0,2.9937441,1.4968721,1.4968721)"><path
             d="M 1,1 H 371 V 41 H 1 Z"
             style="fill:#ffffff;fill-opacity:1;fill-rule:nonzero;stroke:none"
             id="path39" /><path
             d="M 1,1 H 371 V 41 H 1 Z"
             style="fill:none;stroke:#000000;stroke-width:1;stroke-linecap:butt;stroke-linejoin:miter;stroke-miterlimit:10;stroke-dasharray:none;stroke-opacity:1"
             id="path41" /></g><g
           id="g43"
           transform="scale(2.9937441)"><text
             transform="translate(163.65625,26)"
             style="font-variant:normal;font-weight:normal;font-size:12px;font-family:Arial;-inkscape-font-specification:ArialMT;writing-mode:lr-tb;fill:#000000;fill-opacity:1;fill-rule:nonzero;stroke:none"
             id="text47"><tspan
               x="0 8.0039062 12 18.673828 24.673828 27.339844 34.013672 40.6875"
               y="0"
               id="tspan45">Provider</tspan></text></g><g
           id="g49"
           transform="matrix(2.9937441,0,0,2.9937441,1.4968721,1.4968721)"><path
             d="m 1,81 h 370 v 40 H 1 Z"
             style="fill:#ffffff;fill-opacity:1;fill-rule:nonzero;stroke:none"
             id="path51" /><path
             d="m 1,81 h 370 v 40 H 1 Z"
             style="fill:none;stroke:#000000;stroke-width:1;stroke-linecap:butt;stroke-linejoin:miter;stroke-miterlimit:10;stroke-dasharray:none;stroke-opacity:1"
             id="path53" /></g><g
           id="g55"
           transform="scale(2.9937441)"><text
             transform="translate(165.98437,106)"
             style="font-variant:normal;font-weight:normal;font-size:12px;font-family:Arial;-inkscape-font-specification:ArialMT;writing-mode:lr-tb;fill:#000000;fill-opacity:1;fill-rule:nonzero;stroke:none"
             id="text59"><tspan
               x="0 7.3300781 14.003906 20.003906 23.337891 30.011719 34.007812"
               y="0"
               id="tspan57">Factory</tspan></text></g><g
           id="g61"
           transform="matrix(2.9937441,0,0,2.9937441,1.4968721,1.4968721)"><path
             d="m 1,161 h 370 v 40 H 1 Z"
             style="fill:#ffffff;fill-opacity:1;fill-rule:nonzero;stroke:none"
             id="path63" /><path
             d="m 1,161 h 370 v 40 H 1 Z"
             style="fill:none;stroke:#000000;stroke-width:1;stroke-linecap:butt;stroke-linejoin:miter;stroke-miterlimit:10;stroke-dasharray:none;stroke-opacity:1"
             id="path65" /></g><g
           id="g67"
           transform="scale(2.9937441)"><text
             transform="translate(166.98437,186)"
             style="font-variant:normal;font-weight:normal;font-size:12px;font-family:Arial;-inkscape-font-specification:ArialMT;writing-mode:lr-tb;fill:#000000;fill-opacity:1;fill-rule:nonzero;stroke:none"
             id="text71"><tspan
               x="0 8.6660156 15.339844 22.013672 25.347656 32.021484"
               y="0"
               id="tspan69">Routes</tspan></text></g><g
           id="g73"
           transform="matrix(2.9937441,0,0,2.9937441,1.4968721,1.4968721)"><path
             d="M 186,74.629997 V 47.369999"
             style="fill:none;stroke:#000000;stroke-width:1;stroke-linecap:butt;stroke-linejoin:miter;stroke-miterlimit:10;stroke-dasharray:none;stroke-opacity:1"
             id="path75" /><path
             d="m 186,79.879997 -3.5,-7 3.5,1.75 3.5,-1.75 z"
             style="fill:#000000;fill-opacity:1;fill-rule:nonzero;stroke:none"
             id="path77" /><path
             d="m 186,79.879997 -3.5,-7 3.5,1.75 3.5,-1.75 z"
             style="fill:none;stroke:#000000;stroke-width:1;stroke-linecap:butt;stroke-linejoin:miter;stroke-miterlimit:10;stroke-dasharray:none;stroke-opacity:1"
             id="path79" /><path
             d="m 186,42.119999 3.5,7 -3.5,-1.75 -3.5,1.75 z"
             style="fill:#000000;fill-opacity:1;fill-rule:nonzero;stroke:none"
             id="path81" /><path
             d="m 186,42.119999 3.5,7 -3.5,-1.75 -3.5,1.75 z"
             style="fill:none;stroke:#000000;stroke-width:1;stroke-linecap:butt;stroke-linejoin:miter;stroke-miterlimit:10;stroke-dasharray:none;stroke-opacity:1"
             id="path83" /><path
             d="M 186,154.63 V 127.37"
             style="fill:none;stroke:#000000;stroke-width:1;stroke-linecap:butt;stroke-linejoin:miter;stroke-miterlimit:10;stroke-dasharray:none;stroke-opacity:1"
             id="path85" /><path
             d="m 186,159.88 -3.5,-7 3.5,1.75 3.5,-1.75 z"
             style="fill:#000000;fill-opacity:1;fill-rule:nonzero;stroke:none"
             id="path87" /><path
             d="m 186,159.88 -3.5,-7 3.5,1.75 3.5,-1.75 z"
             style="fill:none;stroke:#000000;stroke-width:1;stroke-linecap:butt;stroke-linejoin:miter;stroke-miterlimit:10;stroke-dasharray:none;stroke-opacity:1"
             id="path89" /><path
             d="m 186,122.12 3.5,6.99999 -3.5,-1.74999 -3.5,1.74999 z"
             style="fill:#000000;fill-opacity:1;fill-rule:nonzero;stroke:none"
             id="path91" /><path
             d="m 186,122.12 3.5,6.99999 -3.5,-1.74999 -3.5,1.74999 z"
             style="fill:none;stroke:#000000;stroke-width:1;stroke-linecap:butt;stroke-linejoin:miter;stroke-miterlimit:10;stroke-dasharray:none;stroke-opacity:1"
             id="path93" /></g></g></g></g></svg>
