<?xml version="1.0" encoding="UTF-8" standalone="no"?>
<!-- Created with Inkscape (http://www.inkscape.org/) -->

<svg
   version="1.1"
   id="svg2647"
   xml:space="preserve"
   width="708"
   height="888"
   viewBox="0 0 708 888"
   xmlns="http://www.w3.org/2000/svg"
   xmlns:svg="http://www.w3.org/2000/svg"><defs
     id="defs2651"><clipPath
       clipPathUnits="userSpaceOnUse"
       id="clipPath2663"><path
         d="M 0,0 H 531 V 666 H 0 Z"
         id="path2661" /></clipPath><clipPath
       clipPathUnits="userSpaceOnUse"
       id="clipPath2975"><path
         d="m 472.934,273.435 c 0,-23.095 -18.717,-41.814 -41.81,-41.814 -23.095,0 -41.815,18.719 -41.815,41.814 0,23.092 18.72,41.815 41.815,41.815 23.093,0 41.81,-18.723 41.81,-41.815"
         id="path2973" /></clipPath><linearGradient
       x1="0"
       y1="0"
       x2="1"
       y2="0"
       gradientUnits="userSpaceOnUse"
       gradientTransform="matrix(-4e-6,-83.629,-83.629,4e-6,431.122,315.25)"
       spreadMethod="pad"
       id="linearGradient2989"><stop
         style="stop-opacity:1;stop-color:#fdd6c3"
         offset="0"
         id="stop2985" /><stop
         style="stop-opacity:1;stop-color:#e26b5c"
         offset="1"
         id="stop2987" /></linearGradient><clipPath
       clipPathUnits="userSpaceOnUse"
       id="clipPath2999"><path
         d="M 473.184,315.5 H 304.677 v -84.128 h 168.507 z"
         id="path2997" /></clipPath><clipPath
       clipPathUnits="userSpaceOnUse"
       id="clipPath3005"><path
         d="m 304.68,231.36 h 168.48 v 84.12 H 304.68 Z"
         id="path3003" /></clipPath><clipPath
       clipPathUnits="userSpaceOnUse"
       id="clipPath3037"><path
         d="m 291.78,175.26 h 182.4 v 155.22 h -182.4 z"
         id="path3035" /></clipPath><clipPath
       clipPathUnits="userSpaceOnUse"
       id="clipPath3061"><path
         d="M 0,0 H 531 V 666 H 0 Z"
         id="path3059" /></clipPath></defs><g
     id="g2653"
     transform="matrix(1.3333333,0,0,-1.3333333,0,888)"><g
       id="g2655" /><text
       transform="scale(1,-1)"
       style="font-variant:normal;font-weight:normal;font-size:8.46px;font-family:'Wingdings 2';-inkscape-font-specification:Wingdings2;writing-mode:lr-tb;fill:#cca659;fill-opacity:1;fill-rule:nonzero;stroke:none"
       id="text2735"
       x="117.78"
       y="-504.54001"><tspan
         x="117.78"
         y="-504.54001"
         id="tspan2733"></tspan></text><text
       transform="scale(1,-1)"
       style="font-variant:normal;font-weight:normal;font-size:8.46px;font-family:'Wingdings 2';-inkscape-font-specification:Wingdings2;writing-mode:lr-tb;fill:#cca659;fill-opacity:1;fill-rule:nonzero;stroke:none"
       id="text2759"
       x="117.78"
       y="-463.62"><tspan
         x="117.78"
         y="-463.62"
         id="tspan2757"></tspan></text><text
       transform="scale(1,-1)"
       style="font-variant:normal;font-weight:normal;font-size:8.46px;font-family:'Wingdings 2';-inkscape-font-specification:Wingdings2;writing-mode:lr-tb;fill:#cca659;fill-opacity:1;fill-rule:nonzero;stroke:none"
       id="text2935"
       x="117.78"
       y="-93.720001"><tspan
         x="117.78"
         y="-93.720001"
         id="tspan2933"></tspan></text><g
       id="g3632"
       transform="translate(-115.86454,5.306773)"><g
         id="g2969"><g
           id="g2971"
           clip-path="url(#clipPath2975)"><g
             id="g2977"><g
               id="g2983"><path
                 d="M 0,0 H 531 V 666 H 0 Z"
                 style="fill:url(#linearGradient2989);stroke:none"
                 id="path2991" /></g></g></g></g><g
         id="g2993"><g
           id="g2995"
           clip-path="url(#clipPath2999)"><g
             id="g3001"
             clip-path="url(#clipPath3005)"><g
               id="g3007"
               transform="translate(472.934,273.435)"><path
                 d="m 0,0 c 0,-23.095 -18.718,-41.813 -41.811,-41.813 -23.095,0 -41.815,18.718 -41.815,41.813 0,23.093 18.72,41.815 41.815,41.815 C -18.718,41.815 0,23.093 0,0 Z"
                 style="fill:none;stroke:#010202;stroke-width:0.5;stroke-linecap:butt;stroke-linejoin:miter;stroke-miterlimit:10;stroke-dasharray:none;stroke-opacity:1"
                 id="path3009" /></g><path
               d="m 343.039,274.379 c 0.521,-10.514 -7.582,-19.464 -18.099,-19.987 -10.517,-0.522 -19.467,7.581 -19.988,18.098 -0.522,10.518 7.582,19.466 18.098,19.988 10.518,0.522 19.467,-7.58 19.989,-18.099 z"
               style="fill:none;stroke:#010202;stroke-width:0.5;stroke-linecap:butt;stroke-linejoin:miter;stroke-miterlimit:10;stroke-dasharray:1.9961, 0.99806;stroke-dashoffset:0;stroke-opacity:1"
               id="path3011" /><g
               id="g3013"
               transform="translate(343.062,273.435)"><path
                 d="M 0,0 H 41.817"
                 style="fill:none;stroke:#010202;stroke-width:0.5;stroke-linecap:butt;stroke-linejoin:miter;stroke-miterlimit:10;stroke-dasharray:none;stroke-opacity:1"
                 id="path3015" /></g><path
               d="m 383.887,271.981 5.421,1.453 -5.421,1.453 v -2.906"
               style="fill:#010202;fill-opacity:1;fill-rule:nonzero;stroke:none"
               id="path3017" /><text
               transform="matrix(1,0,0,-1,318.0895,271.5683)"
               style="font-variant:normal;font-weight:normal;font-size:7.0003px;font-family:Arial;-inkscape-font-specification:ArialMT;writing-mode:lr-tb;fill:#221e1f;fill-opacity:1;fill-rule:nonzero;stroke:none"
               id="text3021"><tspan
                 x="0 4.0265727 7.9201393"
                 y="0"
                 id="tspan3019">You</tspan></text><text
               transform="matrix(1,0,0,-1,350.2685,265.2358)"
               style="font-variant:normal;font-weight:bold;font-size:7.0003px;font-family:Arial;-inkscape-font-specification:Arial-BoldMT;writing-mode:lr-tb;fill:#221e1f;fill-opacity:1;fill-rule:nonzero;stroke:none"
               id="text3025"><tspan
                 x="0 5.0542164 8.9463835 12.838551 17.115734 21.392918 25.670099"
                 y="0"
                 id="tspan3023">Account</tspan></text><text
               transform="matrix(1,0,0,-1,424.9001,271.7496)"
               style="font-variant:normal;font-weight:bold;font-size:7.0003px;font-family:Arial;-inkscape-font-specification:Arial-BoldMT;writing-mode:lr-tb;fill:#221e1f;fill-opacity:1;fill-rule:nonzero;stroke:none"
               id="text3029"><tspan
                 x="0 5.4462333 8.1693497"
                 y="0"
                 id="tspan3027">Org</tspan></text></g></g></g></g></g></svg>
