<?xml version="1.0" encoding="UTF-8" standalone="no"?>
<!-- Created with Inkscape (http://www.inkscape.org/) -->

<svg
   version="1.1"
   id="svg1673"
   xml:space="preserve"
   width="708"
   height="888"
   viewBox="0 0 708 888"
   xmlns="http://www.w3.org/2000/svg"
   xmlns:svg="http://www.w3.org/2000/svg"><defs
     id="defs1677"><clipPath
       clipPathUnits="userSpaceOnUse"
       id="clipPath1689"><path
         d="M 0,0 H 531 V 666 H 0 Z"
         id="path1687" /></clipPath><clipPath
       clipPathUnits="userSpaceOnUse"
       id="clipPath1929"><path
         d="m 376.609,396.28 c 0,-18.862 -15.29,-34.154 -34.154,-34.154 -18.862,0 -34.154,15.292 -34.154,34.154 0,18.862 15.292,34.154 34.154,34.154 18.864,0 34.154,-15.292 34.154,-34.154"
         id="path1927" /></clipPath><linearGradient
       x1="0"
       y1="0"
       x2="1"
       y2="0"
       gradientUnits="userSpaceOnUse"
       gradientTransform="matrix(-3e-6,-68.308,-68.308,3e-6,342.455,430.434)"
       spreadMethod="pad"
       id="linearGradient1943"><stop
         style="stop-opacity:1;stop-color:#70b1d5"
         offset="0"
         id="stop1939" /><stop
         style="stop-opacity:1;stop-color:#184275"
         offset="1"
         id="stop1941" /></linearGradient><clipPath
       clipPathUnits="userSpaceOnUse"
       id="clipPath1953"><path
         d="M 376.859,440.03 H 93.799 v -84.128 h 283.06 z"
         id="path1951" /></clipPath><clipPath
       clipPathUnits="userSpaceOnUse"
       id="clipPath1959"><path
         d="M 0,0 H 531 V 666 H 0 Z"
         id="path1957" /></clipPath><clipPath
       clipPathUnits="userSpaceOnUse"
       id="clipPath1971"><path
         d="m 262.055,397.965 c 0,-23.095 -18.718,-41.814 -41.811,-41.814 -23.094,0 -41.815,18.719 -41.815,41.814 0,23.092 18.721,41.815 41.815,41.815 23.093,0 41.811,-18.723 41.811,-41.815"
         id="path1969" /></clipPath><linearGradient
       x1="0"
       y1="0"
       x2="1"
       y2="0"
       gradientUnits="userSpaceOnUse"
       gradientTransform="matrix(-4e-6,-83.629,-83.629,4e-6,220.242,439.78)"
       spreadMethod="pad"
       id="linearGradient1985"><stop
         style="stop-opacity:1;stop-color:#fdd6c3"
         offset="0"
         id="stop1981" /><stop
         style="stop-opacity:1;stop-color:#e26b5c"
         offset="1"
         id="stop1983" /></linearGradient><clipPath
       clipPathUnits="userSpaceOnUse"
       id="clipPath1995"><path
         d="M 0,0 H 531 V 666 H 0 Z"
         id="path1993" /></clipPath><clipPath
       clipPathUnits="userSpaceOnUse"
       id="clipPath2037"><path
         d="m 90.96,53.52 h 241.26 v 89.16 H 90.96 Z"
         id="path2035" /></clipPath><clipPath
       clipPathUnits="userSpaceOnUse"
       id="clipPath2049"><path
         d="m 57.18,52.5 h 408 v 90.18 h -408 z"
         id="path2047" /></clipPath><clipPath
       clipPathUnits="userSpaceOnUse"
       id="clipPath2077"><path
         d="M 0,0 H 531 V 666 H 0 Z"
         id="path2075" /></clipPath></defs><g
     id="g1679"
     transform="matrix(1.3333333,0,0,-1.3333333,0,888)"><g
       id="g1681" /><text
       transform="scale(1,-1)"
       style="font-variant:normal;font-weight:normal;font-size:8.46px;font-family:'Wingdings 2';-inkscape-font-specification:Wingdings2;writing-mode:lr-tb;fill:#cca659;fill-opacity:1;fill-rule:nonzero;stroke:none"
       id="text1713"
       x="108.78"
       y="-605.34003"><tspan
         x="108.78"
         y="-605.34003"
         id="tspan1711"></tspan></text><text
       transform="scale(1,-1)"
       style="font-variant:normal;font-weight:normal;font-size:8.46px;font-family:'Wingdings 2';-inkscape-font-specification:Wingdings2;writing-mode:lr-tb;fill:#cca659;fill-opacity:1;fill-rule:nonzero;stroke:none"
       id="text1737"
       x="108.78"
       y="-565.91998"><tspan
         x="108.78"
         y="-565.91998"
         id="tspan1735"></tspan></text><text
       transform="scale(1,-1)"
       style="font-variant:normal;font-weight:normal;font-size:8.46px;font-family:'Wingdings 2';-inkscape-font-specification:Wingdings2;writing-mode:lr-tb;fill:#cca659;fill-opacity:1;fill-rule:nonzero;stroke:none"
       id="text1749"
       x="108.78"
       y="-539.34003"><tspan
         x="108.78"
         y="-539.34003"
         id="tspan1747"></tspan></text><g
       id="g1923"><g
         id="g1925"
         clip-path="url(#clipPath1929)"><g
           id="g1931"><g
             id="g1937"><path
               d="M 0,0 H 531 V 666 H 0 Z"
               style="fill:url(#linearGradient1943);stroke:none"
               id="path1945" /></g></g></g></g><g
       id="g1947"><g
         id="g1949"
         clip-path="url(#clipPath1953)"><g
           id="g1955"
           clip-path="url(#clipPath1959)"><g
             id="g1961"
             transform="translate(376.609,396.28)"><path
               d="m 0,0 c 0,-18.862 -15.29,-34.154 -34.154,-34.154 -18.862,0 -34.154,15.292 -34.154,34.154 0,18.862 15.292,34.154 34.154,34.154 C -15.29,34.154 0,18.862 0,0 Z"
               style="fill:none;stroke:#010202;stroke-width:0.5;stroke-linecap:butt;stroke-linejoin:miter;stroke-miterlimit:10;stroke-dasharray:none;stroke-opacity:1"
               id="path1963" /></g></g></g></g><g
       id="g1965"><g
         id="g1967"
         clip-path="url(#clipPath1971)"><g
           id="g1973"><g
             id="g1979"><path
               d="M 0,0 H 531 V 666 H 0 Z"
               style="fill:url(#linearGradient1985);stroke:none"
               id="path1987" /></g></g></g></g><g
       id="g1989"><g
         id="g1991"
         clip-path="url(#clipPath1995)"><g
           id="g1997"
           transform="translate(262.055,397.965)"><path
             d="m 0,0 c 0,-23.095 -18.719,-41.813 -41.812,-41.813 -23.094,0 -41.814,18.718 -41.814,41.813 0,23.093 18.72,41.815 41.814,41.815 C -18.719,41.815 0,23.093 0,0 Z"
             style="fill:none;stroke:#010202;stroke-width:0.5;stroke-linecap:butt;stroke-linejoin:miter;stroke-miterlimit:10;stroke-dasharray:none;stroke-opacity:1"
             id="path1999" /></g><path
           d="m 132.17,398.659 c 0.384,-10.52 -7.836,-19.363 -18.36,-19.747 -10.523,-0.384 -19.365,7.837 -19.749,18.358 -0.383,10.525 7.837,19.365 18.36,19.749 10.523,0.384 19.365,-7.835 19.749,-18.36 z"
           style="fill:none;stroke:#010202;stroke-width:0.5;stroke-linecap:butt;stroke-linejoin:miter;stroke-miterlimit:10;stroke-dasharray:1.9961, 0.99806;stroke-dashoffset:0;stroke-opacity:1"
           id="path2001" /><g
           id="g2003"
           transform="translate(132.183,397.965)"><path
             d="M 0,0 H 41.817"
             style="fill:none;stroke:#010202;stroke-width:0.5;stroke-linecap:butt;stroke-linejoin:miter;stroke-miterlimit:10;stroke-dasharray:none;stroke-opacity:1"
             id="path2005" /></g><path
           d="m 173.008,396.512 5.421,1.452 -5.421,1.453 v -2.905"
           style="fill:#010202;fill-opacity:1;fill-rule:nonzero;stroke:none"
           id="path2007" /><g
           id="g2009"
           transform="translate(262.055,397.965)"><path
             d="M 0,0 H 41.816"
             style="fill:none;stroke:#010202;stroke-width:0.5;stroke-linecap:butt;stroke-linejoin:miter;stroke-miterlimit:10;stroke-dasharray:none;stroke-opacity:1"
             id="path2011" /></g><path
           d="m 302.881,396.512 5.42,1.452 -5.42,1.453 v -2.905"
           style="fill:#010202;fill-opacity:1;fill-rule:nonzero;stroke:none"
           id="path2013" /><text
           transform="matrix(1,0,0,-1,107.2095,396.0983)"
           style="font-variant:normal;font-weight:normal;font-size:7.0003px;font-family:Arial;-inkscape-font-specification:ArialMT;writing-mode:lr-tb;fill:#221e1f;fill-opacity:1;fill-rule:nonzero;stroke:none"
           id="text2017"><tspan
             x="0 4.0265727 7.9201393"
             y="0"
             id="tspan2015">You</tspan></text><text
           transform="matrix(1,0,0,-1,139.3885,389.7658)"
           style="font-variant:normal;font-weight:bold;font-size:7.0003px;font-family:Arial;-inkscape-font-specification:Arial-BoldMT;writing-mode:lr-tb;fill:#221e1f;fill-opacity:1;fill-rule:nonzero;stroke:none"
           id="text2021"><tspan
             x="0 5.0542164 8.9463835 12.838551 17.115734 21.392918 25.670099"
             y="0"
             id="tspan2019">Account</tspan></text><text
           transform="matrix(1,0,0,-1,214.4709,396.281)"
           style="font-variant:normal;font-weight:bold;font-size:7.0003px;font-family:Arial;-inkscape-font-specification:Arial-BoldMT;writing-mode:lr-tb;fill:#221e1f;fill-opacity:1;fill-rule:nonzero;stroke:none"
           id="text2025"><tspan
             x="0 1.9460834 7.0002999"
             y="0"
             id="tspan2023">IDP</tspan></text><text
           transform="matrix(1,0,0,-1,336.2334,394.5953)"
           style="font-variant:normal;font-weight:bold;font-size:7.0003px;font-family:Arial;-inkscape-font-specification:Arial-BoldMT;writing-mode:lr-tb;fill:#ffffff;fill-opacity:1;fill-rule:nonzero;stroke:none"
           id="text2029"><tspan
             x="0 5.4462333 8.1693497"
             y="0"
             id="tspan2027">Org</tspan></text></g></g></g></svg>
