<?xml version="1.0" encoding="UTF-8" standalone="no"?>
<!-- Created with Inkscape (http://www.inkscape.org/) -->

<svg
   version="1.1"
   id="svg9"
   xml:space="preserve"
   width="708"
   height="888"
   viewBox="0 0 708 888"
   xmlns="http://www.w3.org/2000/svg"
   xmlns:svg="http://www.w3.org/2000/svg"><defs
     id="defs13"><clipPath
       clipPathUnits="userSpaceOnUse"
       id="clipPath25"><path
         d="M 0,0 H 531 V 666 H 0 Z"
         id="path23" /></clipPath><clipPath
       clipPathUnits="userSpaceOnUse"
       id="clipPath257"><path
         d="M 441.562,274.248 H 93.798 V 90.581 h 347.764 z"
         id="path255" /></clipPath><clipPath
       clipPathUnits="userSpaceOnUse"
       id="clipPath263"><path
         d="M 93.78,90.6 H 441.54 V 274.26 H 93.78 Z"
         id="path261" /></clipPath><clipPath
       clipPathUnits="userSpaceOnUse"
       id="clipPath431"><path
         d="M 0,0 H 531 V 666 H 0 Z"
         id="path429" /></clipPath></defs><g
     id="g15"
     transform="matrix(1.3333333,0,0,-1.3333333,0,888)"><g
       id="g17" /><g
       id="g251"><g
         id="g253"
         clip-path="url(#clipPath257)"><g
           id="g259"
           clip-path="url(#clipPath263)"><path
             d="m 214.181,217.9 c 0,-17.557 -24.7,-31.792 -55.169,-31.792 -30.469,0 -55.17,14.235 -55.17,31.792 0,17.559 24.701,31.793 55.17,31.793 30.469,0 55.169,-14.234 55.169,-31.793"
             style="fill:#edebe0;fill-opacity:1;fill-rule:nonzero;stroke:none"
             id="path265" /><g
             id="g267"
             transform="translate(214.181,217.9)"><path
               d="m 0,0 c 0,-17.557 -24.7,-31.792 -55.169,-31.792 -30.469,0 -55.17,14.235 -55.17,31.792 0,17.559 24.701,31.793 55.17,31.793 C -24.7,31.793 0,17.559 0,0 Z"
               style="fill:none;stroke:#010202;stroke-width:0.5;stroke-linecap:butt;stroke-linejoin:miter;stroke-miterlimit:10;stroke-dasharray:none;stroke-opacity:1"
               id="path269" /></g><path
             d="m 402.645,217.9 c 0,-17.557 -24.7,-31.792 -55.169,-31.792 -30.469,0 -55.169,14.235 -55.169,31.792 0,17.559 24.7,31.793 55.169,31.793 30.469,0 55.169,-14.234 55.169,-31.793"
             style="fill:#edebe0;fill-opacity:1;fill-rule:nonzero;stroke:none"
             id="path271" /><g
             id="g273"
             transform="translate(402.645,217.9)"><path
               d="m 0,0 c 0,-17.557 -24.7,-31.792 -55.169,-31.792 -30.469,0 -55.169,14.235 -55.169,31.792 0,17.559 24.7,31.793 55.169,31.793 C -24.7,31.793 0,17.559 0,0 Z"
               style="fill:none;stroke:#010202;stroke-width:0.5;stroke-linecap:butt;stroke-linejoin:miter;stroke-miterlimit:10;stroke-dasharray:none;stroke-opacity:1"
               id="path275" /></g><path
             d="m 94.048,191.502 h 45.502 v 31.501 H 94.048 Z"
             style="fill:#ffffff;fill-opacity:1;fill-rule:nonzero;stroke:none"
             id="path277" /><path
             d="m 94.048,191.502 h 45.502 v 31.501 H 94.048 Z"
             style="fill:none;stroke:#010202;stroke-width:0.5;stroke-linecap:butt;stroke-linejoin:miter;stroke-miterlimit:10;stroke-dasharray:none;stroke-opacity:1"
             id="path279" /><path
             d="m 178.552,191.502 h 45.502 v 31.501 h -45.502 z"
             style="fill:#ffffff;fill-opacity:1;fill-rule:nonzero;stroke:none"
             id="path281" /><path
             d="m 178.552,191.502 h 45.502 v 31.501 h -45.502 z"
             style="fill:none;stroke:#010202;stroke-width:0.5;stroke-linecap:butt;stroke-linejoin:miter;stroke-miterlimit:10;stroke-dasharray:none;stroke-opacity:1"
             id="path283" /><path
             d="m 253.889,191.502 h 43.085 v 31.501 h -43.085 z"
             style="fill:#ffffff;fill-opacity:1;fill-rule:nonzero;stroke:none"
             id="path285" /><path
             d="m 253.889,191.502 h 43.085 v 31.501 h -43.085 z"
             style="fill:none;stroke:#010202;stroke-width:0.5;stroke-linecap:butt;stroke-linejoin:miter;stroke-miterlimit:10;stroke-dasharray:none;stroke-opacity:1"
             id="path287" /><path
             d="m 330.224,191.502 h 38.086 v 31.501 h -38.086 z"
             style="fill:#a7a9ac;fill-opacity:1;fill-rule:nonzero;stroke:none"
             id="path289" /><path
             d="m 330.223,191.502 h 38.086 v 31.501 h -38.086 z"
             style="fill:none;stroke:#231f20;stroke-width:0.5;stroke-linecap:butt;stroke-linejoin:miter;stroke-miterlimit:10;stroke-dasharray:none;stroke-opacity:1"
             id="path291" /><path
             d="m 399.894,191.502 h 41.419 v 31.501 h -41.419 z"
             style="fill:#ffffff;fill-opacity:1;fill-rule:nonzero;stroke:none"
             id="path293" /><path
             d="m 399.893,191.502 h 41.419 v 31.501 h -41.419 z"
             style="fill:none;stroke:#010202;stroke-width:0.5;stroke-linecap:butt;stroke-linejoin:miter;stroke-miterlimit:10;stroke-dasharray:none;stroke-opacity:1"
             id="path295" /><path
             d="M 324.224,126.939 H 374.31 V 158.44 H 324.224 Z"
             style="fill:#ffffff;fill-opacity:1;fill-rule:nonzero;stroke:none"
             id="path297" /><path
             d="M 324.224,126.939 H 374.31 V 158.44 H 324.224 Z"
             style="fill:none;stroke:#010202;stroke-width:0.5;stroke-linecap:butt;stroke-linejoin:miter;stroke-miterlimit:10;stroke-dasharray:none;stroke-opacity:1"
             id="path299" /><path
             d="m 138.55,126.939 h 41.418 V 158.44 H 138.55 Z"
             style="fill:#a7a9ac;fill-opacity:1;fill-rule:nonzero;stroke:none"
             id="path301" /><path
             d="m 138.55,126.939 h 41.418 V 158.44 H 138.55 Z"
             style="fill:none;stroke:#231f20;stroke-width:0.5;stroke-linecap:butt;stroke-linejoin:miter;stroke-miterlimit:10;stroke-dasharray:none;stroke-opacity:1"
             id="path303" /><g
             id="g305"
             transform="translate(252.977,142.69)"><path
               d="M 0,0 -8.688,8.563 V 4.375 h -10.376 v -8.75 h 10.376 v -4.187 z"
               style="fill:none;stroke:#221e1f;stroke-width:0.5;stroke-linecap:butt;stroke-linejoin:round;stroke-miterlimit:10;stroke-dasharray:none;stroke-opacity:1"
               id="path307" /></g><g
             id="g309"
             transform="translate(248.503,207.253)"><path
               d="M 0,0 -8.687,8.563 V 4.375 h -10.376 v -8.75 h 10.376 v -4.188 z"
               style="fill:none;stroke:#221e1f;stroke-width:0.5;stroke-linecap:butt;stroke-linejoin:round;stroke-miterlimit:10;stroke-dasharray:none;stroke-opacity:1"
               id="path311" /></g><g
             id="g313"
             transform="translate(248.503,265.436)"><path
               d="M 0,0 -8.687,8.563 V 4.375 h -10.376 v -8.75 h 10.376 v -4.188 z"
               style="fill:none;stroke:#221e1f;stroke-width:0.5;stroke-linecap:butt;stroke-linejoin:round;stroke-miterlimit:10;stroke-dasharray:none;stroke-opacity:1"
               id="path315" /></g><text
             transform="matrix(1,0,0,-1,105.2631,263.7507)"
             style="font-variant:normal;font-weight:bold;font-size:8.0003px;font-family:Arial;-inkscape-font-specification:Arial-BoldMT;writing-mode:lr-tb;fill:#221e1f;fill-opacity:1;fill-rule:nonzero;stroke:none"
             id="text319"><tspan
               x="0 5.7762165 10.224383 15.112567 17.776667 20.888783 25.33695 27.561033 29.785116 33.785267 38.233433 43.121616 45.345699 48.0098 52.457966 57.346149 61.794315 64.906433 69.354599 72.0187 76.466866 81.355049 83.579132 90.691399 95.579582 100.46777 104.91593"
               y="0"
               id="tspan317">Centralized/federated model</tspan></text><text
             transform="matrix(1,0,0,-1,131.4165,230.4739)"
             style="font-variant:normal;font-weight:bold;font-size:7.0003px;font-family:Arial;-inkscape-font-specification:Arial-BoldMT;writing-mode:lr-tb;fill:#221e1f;fill-opacity:1;fill-rule:nonzero;stroke:none"
             id="text323"><tspan
               x="0 4.2771835 8.5543671 12.446533 16.723717 20.615883 22.559866 26.837049 29.16815 31.112133 35.004299 39.281483 43.558666 45.889767 48.612885 52.890068 188.46698 192.74416 197.02135 200.91351 205.19069 209.08286 211.02684 215.30403 217.63513 219.57912 223.47128 227.74846 232.02565 234.35675 237.07986 241.35704"
               y="0"
               id="tspan321">Locus of controlLocus of control</tspan></text><text
             transform="matrix(1,0,0,-1,106.4415,205.5682)"
             style="font-variant:normal;font-weight:bold;font-size:7.0003px;font-family:Arial;-inkscape-font-specification:Arial-BoldMT;writing-mode:lr-tb;fill:#221e1f;fill-opacity:1;fill-rule:nonzero;stroke:none"
             id="text327"><tspan
               x="0 1.9467834 5.8396502 9.7325172 14.010401 17.903267 158.638 160.58478 164.47765 168.37051 172.64839 176.54126"
               y="0"
               id="tspan325">IssuerIssuer</tspan></text><text
             transform="matrix(1,0,0,-1,151.4311,141.0052)"
             style="font-variant:normal;font-weight:bold;font-size:7.0003px;font-family:Arial;-inkscape-font-specification:Arial-BoldMT;writing-mode:lr-tb;fill:#221e1f;fill-opacity:1;fill-rule:nonzero;stroke:none"
             id="text331"><tspan
               x="0 5.0556169 8.9491835 12.842751"
               y="0"
               id="tspan329">User</tspan></text><text
             transform="matrix(1,0,0,-1,341.4395,205.5675)"
             style="font-variant:normal;font-weight:bold;font-size:7.0003px;font-family:Arial;-inkscape-font-specification:Arial-BoldMT;writing-mode:lr-tb;fill:#221e1f;fill-opacity:1;fill-rule:nonzero;stroke:none"
             id="text335"><tspan
               x="0 5.0556169 8.9491835 12.842751"
               y="0"
               id="tspan333">User</tspan></text><text
             transform="matrix(1,0,0,-1,335.261,141.0052)"
             style="font-variant:normal;font-weight:bold;font-size:7.0003px;font-family:Arial;-inkscape-font-specification:Arial-BoldMT;writing-mode:lr-tb;fill:#221e1f;fill-opacity:1;fill-rule:nonzero;stroke:none"
             id="text339"><tspan
               x="0 5.0549169 8.9477835 13.225667 15.17245 19.065317 21.397118 24.120934"
               y="0"
               id="tspan337">Registry</tspan></text><text
             transform="matrix(1,0,0,-1,189.3881,205.5675)"
             style="font-variant:normal;font-weight:bold;font-size:7.0003px;font-family:Arial;-inkscape-font-specification:Arial-BoldMT;writing-mode:lr-tb;fill:#221e1f;fill-opacity:1;fill-rule:nonzero;stroke:none"
             id="text343"><tspan
               x="0 4.2827835 8.1763506 10.900167 12.845551 15.17665 17.121334 21.0149"
               y="0"
               id="tspan341">Verifier</tspan></text><text
             transform="matrix(1,0,0,-1,408.6893,205.5682)"
             style="font-variant:normal;font-weight:bold;font-size:7.0003px;font-family:Arial;-inkscape-font-specification:Arial-BoldMT;writing-mode:lr-tb;fill:#221e1f;fill-opacity:1;fill-rule:nonzero;stroke:none"
             id="text347"><tspan
               x="0 4.2827835 8.1763506 10.900167 12.845551 15.17665 17.121334 21.0149"
               y="0"
               id="tspan345">Verifier</tspan></text><text
             transform="matrix(1,0,0,-1,149.8679,213.2525)"
             style="font-style:italic;font-variant:normal;font-size:7.0003px;font-family:Arial;-inkscape-font-specification:Arial-ItalicMT;writing-mode:lr-tb;fill:#221e1f;fill-opacity:1;fill-rule:nonzero;stroke:none"
             id="text351"><tspan
               x="0 4.6691999 7.0002999 10.892467 14.392617 225.18706 229.85625 232.18735 236.07951 239.57967"
               y="0"
               id="tspan349">ProveProve</tspan></text><text
             transform="matrix(1,0,0,-1,352.2669,173.105)"
             style="font-style:italic;font-variant:normal;font-size:7.0003px;font-family:Arial;-inkscape-font-specification:Arial-ItalicMT;writing-mode:lr-tb;fill:#221e1f;fill-opacity:1;fill-rule:nonzero;stroke:none"
             id="text355"><tspan
               x="0 4.6698999 7.0016999 10.894567 14.395417"
               y="0"
               id="tspan353">Prove</tspan></text><text
             transform="matrix(1,0,0,-1,214.2693,92.8536)"
             style="font-variant:normal;font-weight:normal;font-size:7.0003px;font-family:Arial;-inkscape-font-specification:ArialMT;writing-mode:lr-tb;fill:#221e1f;fill-opacity:1;fill-rule:nonzero;stroke:none"
             id="text359"><tspan
               x="0 4.6698999 8.562767 13.617683 17.51055 19.84235 21.788433 24.120234 28.0131 29.567867 33.460735 35.407516 36.962284 40.855152 44.748016 48.248867 52.141735 53.696503"
               y="0"
               id="tspan357">Power relationship</tspan></text><text
             transform="matrix(1,0,0,-1,304.6039,213.2525)"
             style="font-style:italic;font-variant:normal;font-size:7.0003px;font-family:Arial;-inkscape-font-specification:Arial-ItalicMT;writing-mode:lr-tb;fill:#221e1f;fill-opacity:1;fill-rule:nonzero;stroke:none"
             id="text363"><tspan
               x="0 4.6691999 7.0002999 10.892467 14.392617"
               y="0"
               id="tspan361">Prove</tspan></text><text
             transform="matrix(1,0,0,-1,306.8409,263.7507)"
             style="font-variant:normal;font-weight:bold;font-size:8.0003px;font-family:Arial;-inkscape-font-specification:Arial-BoldMT;writing-mode:lr-tb;fill:#221e1f;fill-opacity:1;fill-rule:nonzero;stroke:none"
             id="text367"><tspan
               x="0 5.3362002 9.7843666 12.008451 14.67255 17.336651 21.784817 26.673 31.121166 35.569332 38.68145 43.129616 45.353703 50.241882 55.130066 57.354149 64.466415 69.354599 74.242783 78.690948"
               y="0"
               id="tspan365">Self-sovereign model</tspan></text><path
             d="m 144.738,207.252 c 0,-1.381 -1.119,-2.5 -2.5,-2.5 -1.381,0 -2.5,1.119 -2.5,2.5 0,1.381 1.119,2.5 2.5,2.5 1.381,0 2.5,-1.119 2.5,-2.5"
             style="fill:#010202;fill-opacity:1;fill-rule:nonzero;stroke:none"
             id="path369" /><path
             d="m 178.286,207.252 c 0,-1.381 -1.119,-2.5 -2.5,-2.5 -1.381,0 -2.5,1.119 -2.5,2.5 0,1.381 1.119,2.5 2.5,2.5 1.381,0 2.5,-1.119 2.5,-2.5"
             style="fill:#010202;fill-opacity:1;fill-rule:nonzero;stroke:none"
             id="path371" /><g
             id="g373"
             transform="translate(142.238,207.252)"><path
               d="M 0,0 H 33.548"
               style="fill:none;stroke:#010202;stroke-width:0.5;stroke-linecap:butt;stroke-linejoin:miter;stroke-miterlimit:10;stroke-dasharray:none;stroke-opacity:1"
               id="path375" /></g><path
             d="m 373.31,207.252 c 0,-1.381 -1.119,-2.5 -2.5,-2.5 -1.381,0 -2.5,1.119 -2.5,2.5 0,1.381 1.119,2.5 2.5,2.5 1.381,0 2.5,-1.119 2.5,-2.5"
             style="fill:#010202;fill-opacity:1;fill-rule:nonzero;stroke:none"
             id="path377" /><path
             d="m 351.767,189.002 c 0,-1.381 -1.119,-2.5 -2.5,-2.5 -1.381,0 -2.5,1.119 -2.5,2.5 0,1.381 1.119,2.5 2.5,2.5 1.381,0 2.5,-1.119 2.5,-2.5"
             style="fill:#010202;fill-opacity:1;fill-rule:nonzero;stroke:none"
             id="path379" /><path
             d="m 399.894,207.252 c 0,-1.381 -1.119,-2.5 -2.5,-2.5 -1.381,0 -2.5,1.119 -2.5,2.5 0,1.381 1.119,2.5 2.5,2.5 1.381,0 2.5,-1.119 2.5,-2.5"
             style="fill:#010202;fill-opacity:1;fill-rule:nonzero;stroke:none"
             id="path381" /><path
             d="m 351.767,160.941 c 0,-1.381 -1.119,-2.5 -2.5,-2.5 -1.381,0 -2.5,1.119 -2.5,2.5 0,1.381 1.119,2.5 2.5,2.5 1.381,0 2.5,-1.119 2.5,-2.5"
             style="fill:#010202;fill-opacity:1;fill-rule:nonzero;stroke:none"
             id="path383" /><g
             id="g385"
             transform="translate(370.81,207.252)"><path
               d="M 0,0 H 26.78"
               style="fill:none;stroke:#010202;stroke-width:0.5;stroke-linecap:butt;stroke-linejoin:miter;stroke-miterlimit:10;stroke-dasharray:none;stroke-opacity:1"
               id="path387" /></g><path
             d="m 301.974,207.252 c 0,-1.381 -1.119,-2.5 -2.5,-2.5 -1.381,0 -2.5,1.119 -2.5,2.5 0,1.381 1.119,2.5 2.5,2.5 1.381,0 2.5,-1.119 2.5,-2.5"
             style="fill:#010202;fill-opacity:1;fill-rule:nonzero;stroke:none"
             id="path389" /><path
             d="m 330.224,207.252 c 0,-1.381 -1.119,-2.5 -2.5,-2.5 -1.381,0 -2.5,1.119 -2.5,2.5 0,1.381 1.119,2.5 2.5,2.5 1.381,0 2.5,-1.119 2.5,-2.5"
             style="fill:#010202;fill-opacity:1;fill-rule:nonzero;stroke:none"
             id="path391" /><g
             id="g393"
             transform="translate(299.474,207.252)"><path
               d="M 0,0 H 28.548"
               style="fill:none;stroke:#010202;stroke-width:0.5;stroke-linecap:butt;stroke-linejoin:miter;stroke-miterlimit:10;stroke-dasharray:none;stroke-opacity:1"
               id="path395" /></g><path
             d="m 231.671,104.021 c 0,-1.381 -1.119,-2.5 -2.5,-2.5 -1.381,0 -2.5,1.119 -2.5,2.5 0,1.381 1.119,2.5 2.5,2.5 1.381,0 2.5,-1.119 2.5,-2.5"
             style="fill:#010202;fill-opacity:1;fill-rule:nonzero;stroke:none"
             id="path397" /><path
             d="m 260.219,104.021 c 0,-1.381 -1.119,-2.5 -2.5,-2.5 -1.381,0 -2.5,1.119 -2.5,2.5 0,1.381 1.119,2.5 2.5,2.5 1.381,0 2.5,-1.119 2.5,-2.5"
             style="fill:#010202;fill-opacity:1;fill-rule:nonzero;stroke:none"
             id="path399" /><g
             id="g401"
             transform="translate(229.171,104.021)"><path
               d="M 0,0 H 28.548"
               style="fill:none;stroke:#010202;stroke-width:0.5;stroke-linecap:butt;stroke-linejoin:miter;stroke-miterlimit:10;stroke-dasharray:none;stroke-opacity:1"
               id="path403" /></g><g
             id="g405"
             transform="translate(349.267,189.001)"><path
               d="M 0,0 V -28.061"
               style="fill:none;stroke:#010202;stroke-width:0.5;stroke-linecap:butt;stroke-linejoin:miter;stroke-miterlimit:10;stroke-dasharray:none;stroke-opacity:1"
               id="path407" /></g><g
             id="g409"
             transform="translate(116.755,191.501)"><path
               d="M 0,0 21.796,-48.812"
               style="fill:none;stroke:#010202;stroke-width:0.5;stroke-linecap:butt;stroke-linejoin:miter;stroke-miterlimit:10;stroke-dasharray:none;stroke-opacity:1"
               id="path411" /></g><g
             id="g413"
             transform="translate(202.037,191.501)"><path
               d="M 0,0 -22.068,-48.812"
               style="fill:none;stroke:#010202;stroke-width:0.5;stroke-linecap:butt;stroke-linejoin:miter;stroke-miterlimit:10;stroke-dasharray:none;stroke-opacity:1"
               id="path415" /></g><g
             id="g417"
             transform="translate(275.386,191.501)"><path
               d="M 0,0 48.838,-49.479"
               style="fill:none;stroke:#010202;stroke-width:0.5;stroke-linecap:butt;stroke-linejoin:miter;stroke-miterlimit:10;stroke-dasharray:none;stroke-opacity:1"
               id="path419" /></g><g
             id="g421"
             transform="translate(420.603,191.501)"><path
               d="M 0,0 -46.293,-48.812"
               style="fill:none;stroke:#010202;stroke-width:0.5;stroke-linecap:butt;stroke-linejoin:miter;stroke-miterlimit:10;stroke-dasharray:none;stroke-opacity:1"
               id="path423" /></g></g></g></g></g></svg>
